<svg width="63" height="52" viewBox="0 0 63 52" fill="none" xmlns="http://www.w3.org/2000/svg">
<path d="M21.2547 42.3705C21.0927 42.0924 20.7345 41.9974 20.4542 42.1577L19.2526 42.8457V41.4699C19.2526 41.1491 18.9901 40.8889 18.6666 40.8889C18.3431 40.8889 18.0806 41.1491 18.0806 41.4699V42.8457L16.8789 42.1577C16.5987 41.9971 16.2405 42.0924 16.0785 42.3705C15.9169 42.6484 16.0127 43.0036 16.2929 43.1641L17.4946 43.8519L16.2929 44.5396C16.0127 44.7002 15.9169 45.0553 16.0785 45.3332C16.1871 45.5196 16.384 45.624 16.5865 45.624C16.6859 45.624 16.7867 45.5987 16.8789 45.5461L18.0806 44.8581V46.2338C18.0806 46.5546 18.3431 46.8148 18.6666 46.8148C18.9901 46.8148 19.2526 46.5546 19.2526 46.2338V44.8581L20.4542 45.5461C20.5465 45.5987 20.6473 45.624 20.7467 45.624C20.9492 45.624 21.1461 45.5196 21.2547 45.3332C21.4166 45.0553 21.3205 44.7002 21.0402 44.5396L19.8386 43.8519L21.0402 43.1641C21.3205 43.0036 21.4166 42.6484 21.2547 42.3705Z" fill="url(#paint0_linear_25_2574)"/>
<path d="M49.4846 44.5396L48.2829 43.8519L49.4846 43.1641C49.7648 43.0036 49.8609 42.6484 49.699 42.3705C49.5371 42.0924 49.1788 41.9974 48.8986 42.1577L47.6969 42.8457V41.4699C47.6969 41.1491 47.4345 40.8889 47.1109 40.8889C46.7874 40.8889 46.5249 41.1491 46.5249 41.4699V42.8457L45.3233 42.1577C45.043 41.9971 44.6848 42.0924 44.5229 42.3705C44.3612 42.6484 44.457 43.0036 44.7373 43.1641L45.9389 43.8519L44.7373 44.5396C44.457 44.7002 44.3612 45.0553 44.5229 45.3332C44.6314 45.5196 44.8283 45.624 45.0309 45.624C45.1302 45.624 45.231 45.5987 45.3233 45.5461L46.5249 44.8581V46.2338C46.5249 46.5546 46.7874 46.8148 47.1109 46.8148C47.4345 46.8148 47.6969 46.5546 47.6969 46.2338V44.8581L48.8986 45.5461C48.9908 45.5987 49.0916 45.624 49.191 45.624C49.3935 45.624 49.5905 45.5196 49.699 45.3332C49.8609 45.0553 49.7648 44.7002 49.4846 44.5396Z" fill="url(#paint1_linear_25_2574)"/>
<path d="M35.4768 42.3705C35.3149 42.0927 34.9567 41.9974 34.6764 42.1577L33.4748 42.8457V41.4699C33.4748 41.1491 33.2124 40.8889 32.8888 40.8889C32.5653 40.8889 32.3028 41.1491 32.3028 41.4699V42.8457L31.1012 42.1577C30.821 41.9974 30.4627 42.0927 30.3008 42.3705C30.1389 42.6484 30.235 43.0036 30.5152 43.1641L31.7169 43.8519L30.5152 44.5396C30.235 44.7002 30.1389 45.0553 30.3008 45.3332C30.4094 45.5196 30.6063 45.624 30.8088 45.624C30.9082 45.624 31.009 45.5987 31.1012 45.5461L32.3028 44.8581V46.2338C32.3028 46.5546 32.5653 46.8148 32.8888 46.8148C33.2124 46.8148 33.4748 46.5546 33.4748 46.2338V44.8583L34.6764 45.5461C34.7687 45.599 34.8695 45.624 34.9688 45.624C35.1714 45.624 35.3683 45.5196 35.4768 45.3335C35.6384 45.0556 35.5427 44.7002 35.2624 44.5399L34.0608 43.8519L35.2624 43.1641C35.5427 43.0036 35.6387 42.6484 35.4768 42.3705Z" fill="url(#paint2_linear_25_2574)"/>
<path d="M28.2175 47.5557C28.0556 47.2776 27.6974 47.1826 27.4171 47.3428L26.2155 48.0309V46.6551C26.2155 46.3343 25.953 46.0741 25.6295 46.0741C25.3059 46.0741 25.0435 46.3343 25.0435 46.6551V48.0309L23.8418 47.3428C23.5616 47.1823 23.2033 47.2776 23.0414 47.5557C22.8798 47.8336 22.9756 48.1888 23.2558 48.3493L24.4575 49.0371L23.2558 49.7248C22.9756 49.8853 22.8798 50.2405 23.0414 50.5184C23.15 50.7048 23.3469 50.8092 23.5494 50.8092C23.6488 50.8092 23.7496 50.7839 23.8418 50.7313L25.0435 50.0432V51.419C25.0435 51.7398 25.3059 52 25.6295 52C25.953 52 26.2155 51.7398 26.2155 51.419V50.0432L27.4171 50.7313C27.5094 50.7839 27.6102 50.8092 27.7095 50.8092C27.9121 50.8092 28.109 50.7048 28.2175 50.5184C28.3795 50.2405 28.2834 49.8853 28.0031 49.7248L26.8015 49.0371L28.0031 48.3493C28.2834 48.1888 28.3795 47.8336 28.2175 47.5557Z" fill="url(#paint3_linear_25_2574)"/>
<path d="M56.4475 49.7248L55.2458 49.0371L56.4475 48.3493C56.7277 48.1888 56.8238 47.8336 56.6619 47.5557C56.5 47.2776 56.1417 47.1826 55.8615 47.3428L54.6598 48.0309V46.6551C54.6598 46.3343 54.3974 46.0741 54.0738 46.0741C53.7503 46.0741 53.4878 46.3343 53.4878 46.6551V48.0309L52.2862 47.3428C52.0059 47.1823 51.6477 47.2776 51.4858 47.5557C51.3241 47.8336 51.4199 48.1888 51.7002 48.3493L52.9018 49.0371L51.7002 49.7248C51.4199 49.8853 51.3241 50.2405 51.4858 50.5184C51.5943 50.7048 51.7912 50.8092 51.9938 50.8092C52.0931 50.8092 52.1939 50.7839 52.2862 50.7313L53.4878 50.0432V51.419C53.4878 51.7398 53.7503 52 54.0738 52C54.3974 52 54.6598 51.7398 54.6598 51.419V50.0432L55.8615 50.7313C55.9537 50.7839 56.0545 50.8092 56.1539 50.8092C56.3564 50.8092 56.5533 50.7048 56.6619 50.5184C56.8238 50.2405 56.7277 49.8853 56.4475 49.7248Z" fill="url(#paint4_linear_25_2574)"/>
<path d="M42.44 47.5557C42.278 47.2779 41.9198 47.1826 41.6396 47.3428L40.4379 48.0309V46.6551C40.4379 46.3343 40.1755 46.0741 39.852 46.0741C39.5284 46.0741 39.266 46.3343 39.266 46.6551V48.0309L38.0644 47.3428C37.7841 47.1826 37.4259 47.2779 37.264 47.5557C37.102 47.8336 37.1981 48.1888 37.4784 48.3493L38.68 49.0371L37.4784 49.7248C37.1981 49.8853 37.102 50.2405 37.264 50.5184C37.3725 50.7048 37.5694 50.8092 37.772 50.8092C37.8713 50.8092 37.9721 50.7839 38.0644 50.7313L39.266 50.0432V51.419C39.266 51.7398 39.5284 52 39.852 52C40.1755 52 40.4379 51.7398 40.4379 51.419V50.0435L41.6396 50.7313C41.7318 50.7842 41.8326 50.8092 41.932 50.8092C42.1345 50.8092 42.3314 50.7048 42.44 50.5187C42.6016 50.2408 42.5058 49.8853 42.2256 49.7251L41.0239 49.0371L42.2256 48.3493C42.5058 48.1888 42.6019 47.8336 42.44 47.5557Z" fill="url(#paint5_linear_25_2574)"/>
<g filter="url(#filter0_b_25_2574)">
<path d="M22.4706 37C15.5833 37 10 31.4782 10 24.6667C10 18.7171 14.2596 13.7515 19.9272 12.59C21.8756 5.34119 28.5571 0 36.5 0C45.4794 0 52.8466 6.82605 53.586 15.5175C58.9037 16.2395 63 20.7508 63 26.2083C63 32.1684 58.1146 37 52.0882 37H37.2794H22.4706Z" fill="url(#paint6_linear_25_2574)"/>
<path d="M20.2283 14.0595L21.1354 13.8736L21.3758 12.9794C23.1499 6.37905 29.2425 1.5 36.5 1.5C44.7073 1.5 51.4187 7.73661 52.0914 15.6446L52.1933 16.8422L53.3842 17.0039C57.9811 17.628 61.5 21.524 61.5 26.2083C61.5 31.3244 57.3019 35.5 52.0882 35.5H37.2794H22.4706C16.396 35.5 11.5 30.6341 11.5 24.6667C11.5 19.4548 15.2334 15.0831 20.2283 14.0595Z" stroke="url(#paint7_linear_25_2574)" stroke-width="3"/>
</g>
<g filter="url(#filter1_b_25_2574)">
<path d="M10.5882 44C4.74051 44 0 39.2244 0 33.3333C0 28.1878 3.61663 23.8932 8.42875 22.8887C10.083 16.6194 15.756 12 22.5 12C30.124 12 36.3792 17.9036 37.007 25.4205C41.522 26.0449 45 29.9466 45 34.6667C45 39.8213 40.8521 44 35.7353 44H23.1618H10.5882Z" fill="url(#paint8_linear_25_2574)"/>
<path d="M8.73527 24.357L9.64262 24.1676L9.87911 23.2714C11.3657 17.6375 16.4607 13.5 22.5 13.5C29.3282 13.5 34.948 18.79 35.5122 25.5454L35.6121 26.7419L36.8015 26.9064C40.5764 27.4284 43.5 30.6975 43.5 34.6667C43.5 39.0034 40.0132 42.5 35.7353 42.5H23.1618H10.5882C5.57936 42.5 1.5 38.4064 1.5 33.3333C1.5 28.9049 4.61172 25.2178 8.73527 24.357Z" stroke="url(#paint9_linear_25_2574)" stroke-width="3"/>
</g>
<defs>
<filter id="filter0_b_25_2574" x="-2" y="-12" width="77" height="61" filterUnits="userSpaceOnUse" color-interpolation-filters="sRGB">
<feFlood flood-opacity="0" result="BackgroundImageFix"/>
<feGaussianBlur in="BackgroundImageFix" stdDeviation="6"/>
<feComposite in2="SourceAlpha" operator="in" result="effect1_backgroundBlur_25_2574"/>
<feBlend mode="normal" in="SourceGraphic" in2="effect1_backgroundBlur_25_2574" result="shape"/>
</filter>
<filter id="filter1_b_25_2574" x="-12" y="0" width="69" height="56" filterUnits="userSpaceOnUse" color-interpolation-filters="sRGB">
<feFlood flood-opacity="0" result="BackgroundImageFix"/>
<feGaussianBlur in="BackgroundImageFix" stdDeviation="6"/>
<feComposite in2="SourceAlpha" operator="in" result="effect1_backgroundBlur_25_2574"/>
<feBlend mode="normal" in="SourceGraphic" in2="effect1_backgroundBlur_25_2574" result="shape"/>
</filter>
<linearGradient id="paint0_linear_25_2574" x1="21.4315" y1="40.8889" x2="14.8872" y2="42.4217" gradientUnits="userSpaceOnUse">
<stop stop-color="#FAFBFD"/>
<stop offset="1" stop-color="#C6D3E3"/>
</linearGradient>
<linearGradient id="paint1_linear_25_2574" x1="49.8759" y1="40.8889" x2="43.3315" y2="42.4217" gradientUnits="userSpaceOnUse">
<stop stop-color="#FAFBFD"/>
<stop offset="1" stop-color="#C6D3E3"/>
</linearGradient>
<linearGradient id="paint2_linear_25_2574" x1="35.6537" y1="40.8889" x2="29.1094" y2="42.4217" gradientUnits="userSpaceOnUse">
<stop stop-color="#FAFBFD"/>
<stop offset="1" stop-color="#C6D3E3"/>
</linearGradient>
<linearGradient id="paint3_linear_25_2574" x1="28.3944" y1="46.0741" x2="21.8501" y2="47.6068" gradientUnits="userSpaceOnUse">
<stop stop-color="#FAFBFD"/>
<stop offset="1" stop-color="#C6D3E3"/>
</linearGradient>
<linearGradient id="paint4_linear_25_2574" x1="56.8388" y1="46.0741" x2="50.2944" y2="47.6068" gradientUnits="userSpaceOnUse">
<stop stop-color="#FAFBFD"/>
<stop offset="1" stop-color="#C6D3E3"/>
</linearGradient>
<linearGradient id="paint5_linear_25_2574" x1="42.6168" y1="46.0741" x2="36.0725" y2="47.6068" gradientUnits="userSpaceOnUse">
<stop stop-color="#FAFBFD"/>
<stop offset="1" stop-color="#C6D3E3"/>
</linearGradient>
<linearGradient id="paint6_linear_25_2574" x1="10" y1="0" x2="63.5183" y2="36.2345" gradientUnits="userSpaceOnUse">
<stop stop-color="white"/>
<stop offset="1" stop-color="#F2E3D1" stop-opacity="0.3"/>
</linearGradient>
<linearGradient id="paint7_linear_25_2574" x1="10" y1="0" x2="54.9013" y2="34.0616" gradientUnits="userSpaceOnUse">
<stop stop-color="white" stop-opacity="0.9"/>
<stop offset="1" stop-color="white" stop-opacity="0.2"/>
</linearGradient>
<linearGradient id="paint8_linear_25_2574" x1="0" y1="12" x2="45.9634" y2="42.5506" gradientUnits="userSpaceOnUse">
<stop stop-color="white"/>
<stop offset="1" stop-color="#F2E3D1" stop-opacity="0.3"/>
</linearGradient>
<linearGradient id="paint9_linear_25_2574" x1="0" y1="12" x2="38.6349" y2="40.7723" gradientUnits="userSpaceOnUse">
<stop stop-color="white" stop-opacity="0.9"/>
<stop offset="1" stop-color="white" stop-opacity="0.2"/>
</linearGradient>
</defs>
</svg>
