<svg width="150" height="115" viewBox="0 0 150 115" fill="none" xmlns="http://www.w3.org/2000/svg">
<g filter="url(#filter0_b_35_4412)">
<path d="M44.8235 74.9165C30.0093 74.9165 18 63.7361 18 49.9443C18 37.8979 27.1621 27.8437 39.3528 25.4919C43.5437 10.8147 57.9153 0 75 0C94.3141 0 110.161 13.8212 111.751 31.4194C123.189 32.8812 132 42.0156 132 53.0659C132 65.1336 121.492 74.9165 108.529 74.9165H76.6765H44.8235Z" fill="url(#paint0_linear_35_4412)"/>
<path d="M39.9211 28.4376L41.7313 28.0884L42.2375 26.3156C46.0355 13.0144 59.1613 3 75 3C92.927 3 107.327 15.7963 108.763 31.6894L108.98 34.0896L111.371 34.3952C121.499 35.6895 129 43.7072 129 53.0659C129 63.2783 120.041 71.9165 108.529 71.9165H76.6765H44.8235C31.4605 71.9165 21 61.8808 21 49.9443C21 39.5082 28.9655 30.5511 39.9211 28.4376Z" stroke="url(#paint1_linear_35_4412)" stroke-width="6"/>
</g>
<path d="M68.3506 85.5485H31.7759C30.4633 85.5485 29.4001 84.2916 29.4001 82.7429C29.4001 81.1942 30.4633 79.9387 31.7759 79.9387H68.3506C69.662 79.9387 70.7251 81.1942 70.7251 82.7429C70.7251 84.2916 69.662 85.5485 68.3506 85.5485Z" fill="url(#paint2_linear_35_4412)"/>
<path d="M89.4798 95.3657H49.1215C47.6731 95.3657 46.5 94.1088 46.5 92.5602C46.5 91.0115 47.6731 89.756 49.1215 89.756H89.4798C90.9269 89.756 92.1 91.0115 92.1 92.5602C92.1 94.1088 90.9269 95.3657 89.4798 95.3657Z" fill="url(#paint3_linear_35_4412)"/>
<path d="M105.974 115H78.2273C77.2316 115 76.425 113.743 76.425 112.194C76.425 110.646 77.2316 109.39 78.2273 109.39H105.974C106.969 109.39 107.775 110.646 107.775 112.194C107.775 113.743 106.969 115 105.974 115Z" fill="url(#paint4_linear_35_4412)"/>
<path d="M122.91 105.183H92.6409C91.5547 105.183 90.6748 103.926 90.6748 102.377C90.6748 100.828 91.5547 99.573 92.6409 99.573H122.91C123.995 99.573 124.875 100.828 124.875 102.377C124.875 103.926 123.995 105.183 122.91 105.183Z" fill="url(#paint5_linear_35_4412)"/>
<path d="M122.337 85.5485H83.2395C81.8364 85.5485 80.7 84.2916 80.7 82.7429C80.7 81.1942 81.8364 79.9387 83.2395 79.9387H122.337C123.738 79.9387 124.875 81.1942 124.875 82.7429C124.875 84.2916 123.738 85.5485 122.337 85.5485Z" fill="url(#paint6_linear_35_4412)"/>
<path d="M69.5298 105.183H29.1716C27.7232 105.183 26.55 103.926 26.55 102.377C26.55 100.828 27.7232 99.573 29.1716 99.573H69.5298C70.9769 99.573 72.1501 100.828 72.1501 102.377C72.1501 103.926 70.9769 105.183 69.5298 105.183Z" fill="url(#paint7_linear_35_4412)"/>
<defs>
<filter id="filter0_b_35_4412" x="6" y="-12" width="138" height="98.9165" filterUnits="userSpaceOnUse" color-interpolation-filters="sRGB">
<feFlood flood-opacity="0" result="BackgroundImageFix"/>
<feGaussianBlur in="BackgroundImageFix" stdDeviation="6"/>
<feComposite in2="SourceAlpha" operator="in" result="effect1_backgroundBlur_35_4412"/>
<feBlend mode="normal" in="SourceGraphic" in2="effect1_backgroundBlur_35_4412" result="shape"/>
</filter>
<linearGradient id="paint0_linear_35_4412" x1="18" y1="0" x2="128.646" y2="79.5805" gradientUnits="userSpaceOnUse">
<stop stop-color="white"/>
<stop offset="1" stop-color="#F2E3D1" stop-opacity="0.29"/>
</linearGradient>
<linearGradient id="paint1_linear_35_4412" x1="18" y1="0" x2="128.646" y2="79.5805" gradientUnits="userSpaceOnUse">
<stop stop-color="white"/>
<stop offset="1" stop-color="#F2E3D1" stop-opacity="0.3"/>
</linearGradient>
<linearGradient id="paint2_linear_35_4412" x1="24.3094" y1="78.929" x2="53.1615" y2="110.663" gradientUnits="userSpaceOnUse">
<stop stop-color="white" stop-opacity="0.6"/>
<stop offset="1" stop-color="white" stop-opacity="0"/>
</linearGradient>
<linearGradient id="paint3_linear_35_4412" x1="40.8826" y1="88.7462" x2="69.3305" y2="123.273" gradientUnits="userSpaceOnUse">
<stop stop-color="white" stop-opacity="0.6"/>
<stop offset="1" stop-color="white" stop-opacity="0"/>
</linearGradient>
<linearGradient id="paint4_linear_35_4412" x1="72.5631" y1="108.381" x2="101.077" y2="132.173" gradientUnits="userSpaceOnUse">
<stop stop-color="white" stop-opacity="0.6"/>
<stop offset="1" stop-color="white" stop-opacity="0"/>
</linearGradient>
<linearGradient id="paint5_linear_35_4412" x1="86.4618" y1="98.5632" x2="115.317" y2="124.829" gradientUnits="userSpaceOnUse">
<stop stop-color="white" stop-opacity="0.6"/>
<stop offset="1" stop-color="white" stop-opacity="0"/>
</linearGradient>
<linearGradient id="paint6_linear_35_4412" x1="75.2581" y1="78.929" x2="103.865" y2="112.564" gradientUnits="userSpaceOnUse">
<stop stop-color="white" stop-opacity="0.6"/>
<stop offset="1" stop-color="white" stop-opacity="0"/>
</linearGradient>
<linearGradient id="paint7_linear_35_4412" x1="20.9327" y1="98.5632" x2="49.3805" y2="133.09" gradientUnits="userSpaceOnUse">
<stop stop-color="white" stop-opacity="0.6"/>
<stop offset="1" stop-color="white" stop-opacity="0"/>
</linearGradient>
</defs>
</svg>
