<svg width="76" height="60" viewBox="0 0 76 60" fill="none" xmlns="http://www.w3.org/2000/svg">
<path d="M25.5954 48.8891C25.4004 48.5681 24.969 48.4585 24.6315 48.6434L23.1844 49.4373V47.8499C23.1844 47.4798 22.8684 47.1795 22.4788 47.1795C22.0891 47.1795 21.7731 47.4798 21.7731 47.8499V49.4373L20.326 48.6434C19.9885 48.4582 19.5571 48.5681 19.3621 48.8891C19.1675 49.2097 19.2829 49.6195 19.6203 49.8048L21.0674 50.5983L19.6203 51.3919C19.2829 51.5771 19.1675 51.9869 19.3621 52.3075C19.4929 52.5226 19.73 52.6431 19.9739 52.6431C20.0935 52.6431 20.215 52.6139 20.326 52.5532L21.7731 51.7593V53.3467C21.7731 53.7169 22.0891 54.0171 22.4788 54.0171C22.8684 54.0171 23.1844 53.7169 23.1844 53.3467V51.7593L24.6315 52.5532C24.7426 52.6139 24.864 52.6431 24.9836 52.6431C25.2275 52.6431 25.4647 52.5226 25.5954 52.3075C25.7904 51.9869 25.6747 51.5771 25.3372 51.3919L23.8901 50.5983L25.3372 49.8048C25.6747 49.6195 25.7904 49.2097 25.5954 48.8891Z" fill="url(#paint0_linear_31_1189)"/>
<path d="M59.5906 51.3919L58.1435 50.5984L59.5906 49.8048C59.9281 49.6196 60.0438 49.2097 59.8488 48.8891C59.6538 48.5682 59.2224 48.4586 58.8849 48.6435L57.4379 49.4374V47.85C57.4379 47.4798 57.1218 47.1796 56.7322 47.1796C56.3426 47.1796 56.0265 47.4798 56.0265 47.85V49.4374L54.5794 48.6435C54.242 48.4583 53.8106 48.5682 53.6156 48.8891C53.4209 49.2097 53.5363 49.6196 53.8738 49.8048L55.3208 50.5984L53.8738 51.3919C53.5363 51.5772 53.4209 51.987 53.6156 52.3076C53.7463 52.5227 53.9834 52.6431 54.2273 52.6431C54.347 52.6431 54.4684 52.614 54.5794 52.5532L56.0265 51.7593V53.3468C56.0265 53.7169 56.3426 54.0172 56.7322 54.0172C57.1218 54.0172 57.4379 53.7169 57.4379 53.3468V51.7593L58.8849 52.5532C58.996 52.614 59.1174 52.6431 59.237 52.6431C59.481 52.6431 59.7181 52.5227 59.8488 52.3076C60.0438 51.987 59.9281 51.5772 59.5906 51.3919Z" fill="url(#paint1_linear_31_1189)"/>
<path d="M42.7221 48.8891C42.5271 48.5685 42.0957 48.4586 41.7582 48.6435L40.3112 49.4374V47.85C40.3112 47.4798 39.9952 47.1796 39.6055 47.1796C39.2159 47.1796 38.8999 47.4798 38.8999 47.85V49.4374L37.4529 48.6435C37.1154 48.4586 36.684 48.5685 36.489 48.8891C36.294 49.2097 36.4097 49.6196 36.7472 49.8048L38.1942 50.5984L36.7472 51.3919C36.4097 51.5772 36.294 51.987 36.489 52.3076C36.6197 52.5227 36.8568 52.6431 37.1008 52.6431C37.2204 52.6431 37.3418 52.614 37.4529 52.5532L38.8999 51.7593V53.3468C38.8999 53.7169 39.2159 54.0172 39.6055 54.0172C39.9952 54.0172 40.3112 53.7169 40.3112 53.3468V51.7597L41.7582 52.5532C41.8693 52.6143 41.9907 52.6431 42.1103 52.6431C42.3543 52.6431 42.5914 52.5227 42.7221 52.3079C42.9167 51.9873 42.8014 51.5772 42.4639 51.3923L41.0169 50.5984L42.4639 49.8048C42.8014 49.6196 42.9171 49.2097 42.7221 48.8891Z" fill="url(#paint2_linear_31_1189)"/>
<path d="M33.9804 54.8719C33.7854 54.551 33.354 54.4414 33.0165 54.6263L31.5694 55.4202V53.8327C31.5694 53.4626 31.2534 53.1624 30.8638 53.1624C30.4741 53.1624 30.1581 53.4626 30.1581 53.8327V55.4202L28.711 54.6263C28.3736 54.4411 27.9421 54.551 27.7472 54.8719C27.5525 55.1925 27.6679 55.6024 28.0054 55.7876L29.4524 56.5812L28.0054 57.3747C27.6679 57.5599 27.5525 57.9698 27.7472 58.2904C27.8779 58.5055 28.115 58.6259 28.3589 58.6259C28.4785 58.6259 28.6 58.5967 28.711 58.536L30.1581 57.7421V59.3296C30.1581 59.6997 30.4741 60 30.8638 60C31.2534 60 31.5694 59.6997 31.5694 59.3296V57.7421L33.0165 58.536C33.1276 58.5967 33.249 58.6259 33.3686 58.6259C33.6125 58.6259 33.8497 58.5055 33.9804 58.2904C34.1754 57.9698 34.0597 57.5599 33.7222 57.3747L32.2751 56.5812L33.7222 55.7876C34.0597 55.6024 34.1754 55.1925 33.9804 54.8719Z" fill="url(#paint3_linear_31_1189)"/>
<path d="M67.9756 57.3746L66.5285 56.5811L67.9756 55.7875C68.3131 55.6023 68.4288 55.1925 68.2338 54.8719C68.0388 54.5509 67.6074 54.4413 67.2699 54.6262L65.8229 55.4201V53.8327C65.8229 53.4625 65.5068 53.1623 65.1172 53.1623C64.7276 53.1623 64.4115 53.4625 64.4115 53.8327V55.4201L62.9645 54.6262C62.627 54.441 62.1956 54.5509 62.0006 54.8719C61.8059 55.1925 61.9213 55.6023 62.2588 55.7875L63.7058 56.5811L62.2588 57.3746C61.9213 57.5599 61.8059 57.9697 62.0006 58.2903C62.1313 58.5054 62.3684 58.6259 62.6123 58.6259C62.732 58.6259 62.8534 58.5967 62.9645 58.536L64.4115 57.7421V59.3295C64.4115 59.6996 64.7276 59.9999 65.1172 59.9999C65.5068 59.9999 65.8229 59.6996 65.8229 59.3295V57.7421L67.2699 58.536C67.381 58.5967 67.5024 58.6259 67.622 58.6259C67.866 58.6259 68.1031 58.5054 68.2338 58.2903C68.4288 57.9697 68.3131 57.5599 67.9756 57.3746Z" fill="url(#paint4_linear_31_1189)"/>
<path d="M51.1073 54.8719C50.9124 54.5513 50.481 54.4413 50.1435 54.6262L48.6965 55.4201V53.8327C48.6965 53.4625 48.3804 53.1623 47.9908 53.1623C47.6012 53.1623 47.2851 53.4625 47.2851 53.8327V55.4201L45.8381 54.6262C45.5006 54.4413 45.0693 54.5513 44.8743 54.8719C44.6793 55.1925 44.795 55.6023 45.1325 55.7875L46.5795 56.5811L45.1325 57.3746C44.795 57.5599 44.6793 57.9697 44.8743 58.2903C45.005 58.5054 45.2421 58.6259 45.486 58.6259C45.6056 58.6259 45.7271 58.5967 45.8381 58.536L47.2851 57.7421V59.3295C47.2851 59.6996 47.6012 59.9999 47.9908 59.9999C48.3804 59.9999 48.6965 59.6996 48.6965 59.3295V57.7424L50.1435 58.536C50.2545 58.597 50.376 58.6259 50.4956 58.6259C50.7395 58.6259 50.9766 58.5054 51.1073 58.2907C51.302 57.9701 51.1866 57.5599 50.8491 57.375L49.4021 56.5811L50.8491 55.7875C51.1866 55.6023 51.3023 55.1925 51.1073 54.8719Z" fill="url(#paint5_linear_31_1189)"/>
<g filter="url(#filter0_b_31_1189)">
<path d="M26.8865 43.0769C18.5405 43.0769 11.7747 36.6482 11.7747 28.718C11.7747 21.7913 16.9364 16.0101 23.8044 14.6579C26.1655 6.21844 34.2621 0 43.8873 0C54.7685 0 63.6962 7.94717 64.5922 18.0661C71.0362 18.9067 76 24.1589 76 30.5128C76 37.4518 70.0799 43.0769 62.7771 43.0769H44.8318H26.8865Z" fill="url(#paint6_linear_31_1189)"/>
<path d="M24.1908 16.6202L25.3988 16.3823L25.7305 15.1967C27.8396 7.65761 35.1207 2 43.8873 2C53.8083 2 61.8019 9.22976 62.6 18.2425L62.7416 19.8417L64.3335 20.0493C69.8739 20.772 74 25.2541 74 30.5128C74 36.2522 69.0729 41.0769 62.7771 41.0769H44.8318H26.8865C19.5475 41.0769 13.7747 35.4486 13.7747 28.718C13.7747 22.8345 18.1717 17.8053 24.1908 16.6202Z" stroke="url(#paint7_linear_31_1189)" stroke-width="4"/>
</g>
<g filter="url(#filter1_b_31_1189)">
<path d="M12.7191 50.7693C5.69455 50.7693 0 45.3355 0 38.6325C0 32.7778 4.34448 27.8914 10.1251 26.7484C12.1123 19.6151 18.927 14.359 27.0282 14.359C36.1865 14.359 43.7006 21.0763 44.4547 29.6292C49.8784 30.3396 54.0563 34.7791 54.0563 40.1496C54.0563 46.0147 49.0736 50.7693 42.9271 50.7693H27.8231H12.7191Z" fill="url(#paint8_linear_31_1189)"/>
<path d="M10.513 28.7104L11.7212 28.4715L12.0517 27.2851C13.7891 21.0485 19.7914 16.359 27.0282 16.359C35.2189 16.359 41.8053 22.3517 42.4625 29.8048L42.6035 31.4038L44.195 31.6122C48.7089 32.2035 52.0563 35.8675 52.0563 40.1496C52.0563 44.8228 48.0584 48.7693 42.9271 48.7693H27.8231H12.7191C6.70975 48.7693 2 44.1436 2 38.6325C2 33.8147 5.58658 29.6845 10.513 28.7104Z" stroke="url(#paint9_linear_31_1189)" stroke-width="4"/>
</g>
<defs>
<filter id="filter0_b_31_1189" x="-0.225342" y="-12" width="88.2253" height="67.077" filterUnits="userSpaceOnUse" color-interpolation-filters="sRGB">
<feFlood flood-opacity="0" result="BackgroundImageFix"/>
<feGaussianBlur in="BackgroundImageFix" stdDeviation="6"/>
<feComposite in2="SourceAlpha" operator="in" result="effect1_backgroundBlur_31_1189"/>
<feBlend mode="normal" in="SourceGraphic" in2="effect1_backgroundBlur_31_1189" result="shape"/>
</filter>
<filter id="filter1_b_31_1189" x="-12" y="2.35901" width="78.0564" height="60.4103" filterUnits="userSpaceOnUse" color-interpolation-filters="sRGB">
<feFlood flood-opacity="0" result="BackgroundImageFix"/>
<feGaussianBlur in="BackgroundImageFix" stdDeviation="6"/>
<feComposite in2="SourceAlpha" operator="in" result="effect1_backgroundBlur_31_1189"/>
<feBlend mode="normal" in="SourceGraphic" in2="effect1_backgroundBlur_31_1189" result="shape"/>
</filter>
<linearGradient id="paint0_linear_31_1189" x1="25.8084" y1="47.1795" x2="17.9639" y2="49.097" gradientUnits="userSpaceOnUse">
<stop stop-color="#FAFBFD"/>
<stop offset="1" stop-color="#C6D3E3"/>
</linearGradient>
<linearGradient id="paint1_linear_31_1189" x1="60.0618" y1="47.1796" x2="52.2173" y2="49.097" gradientUnits="userSpaceOnUse">
<stop stop-color="#FAFBFD"/>
<stop offset="1" stop-color="#C6D3E3"/>
</linearGradient>
<linearGradient id="paint2_linear_31_1189" x1="42.9351" y1="47.1796" x2="35.0906" y2="49.097" gradientUnits="userSpaceOnUse">
<stop stop-color="#FAFBFD"/>
<stop offset="1" stop-color="#C6D3E3"/>
</linearGradient>
<linearGradient id="paint3_linear_31_1189" x1="34.1934" y1="53.1624" x2="26.3489" y2="55.0798" gradientUnits="userSpaceOnUse">
<stop stop-color="#FAFBFD"/>
<stop offset="1" stop-color="#C6D3E3"/>
</linearGradient>
<linearGradient id="paint4_linear_31_1189" x1="68.4468" y1="53.1623" x2="60.6023" y2="55.0798" gradientUnits="userSpaceOnUse">
<stop stop-color="#FAFBFD"/>
<stop offset="1" stop-color="#C6D3E3"/>
</linearGradient>
<linearGradient id="paint5_linear_31_1189" x1="51.3203" y1="53.1623" x2="43.4759" y2="55.0798" gradientUnits="userSpaceOnUse">
<stop stop-color="#FAFBFD"/>
<stop offset="1" stop-color="#C6D3E3"/>
</linearGradient>
<linearGradient id="paint6_linear_31_1189" x1="11.7747" y1="0" x2="74.9721" y2="44.5355" gradientUnits="userSpaceOnUse">
<stop stop-color="white"/>
<stop offset="1" stop-color="#F2E3D1" stop-opacity="0.3"/>
</linearGradient>
<linearGradient id="paint7_linear_31_1189" x1="11.7747" y1="0" x2="64.5781" y2="41.6923" gradientUnits="userSpaceOnUse">
<stop stop-color="white" stop-opacity="0.9"/>
<stop offset="1" stop-color="white" stop-opacity="0.2"/>
</linearGradient>
<linearGradient id="paint8_linear_31_1189" x1="0" y1="14.359" x2="53.3405" y2="51.7894" gradientUnits="userSpaceOnUse">
<stop stop-color="white"/>
<stop offset="1" stop-color="#F2E3D1" stop-opacity="0.3"/>
</linearGradient>
<linearGradient id="paint9_linear_31_1189" x1="0" y1="14.359" x2="44.5873" y2="49.4153" gradientUnits="userSpaceOnUse">
<stop stop-color="white" stop-opacity="0.9"/>
<stop offset="1" stop-color="white" stop-opacity="0.2"/>
</linearGradient>
</defs>
</svg>
