<svg width="60" height="60" viewBox="0 0 60 60" fill="none" xmlns="http://www.w3.org/2000/svg">
<g filter="url(#filter0_b_31_1228)">
<path d="M60 30C60 46.5685 46.5685 60 30 60C13.4315 60 0 46.5685 0 30C0 13.4315 13.4315 0 30 0C46.5685 0 60 13.4315 60 30Z" fill="url(#paint0_linear_31_1228)"/>
<path d="M58 30C58 45.464 45.464 58 30 58C14.536 58 2 45.464 2 30C2 14.536 14.536 2 30 2C45.464 2 58 14.536 58 30Z" stroke="url(#paint1_linear_31_1228)" stroke-width="4"/>
</g>
<defs>
<filter id="filter0_b_31_1228" x="-62.0757" y="-62.0757" width="184.151" height="184.151" filterUnits="userSpaceOnUse" color-interpolation-filters="sRGB">
<feFlood flood-opacity="0" result="BackgroundImageFix"/>
<feGaussianBlur in="BackgroundImageFix" stdDeviation="31.0378"/>
<feComposite in2="SourceAlpha" operator="in" result="effect1_backgroundBlur_31_1228"/>
<feBlend mode="normal" in="SourceGraphic" in2="effect1_backgroundBlur_31_1228" result="shape"/>
</filter>
<linearGradient id="paint0_linear_31_1228" x1="42.0849" y1="2.77748" x2="16.8098" y2="59.9935" gradientUnits="userSpaceOnUse">
<stop stop-color="#FFD88B"/>
<stop offset="1" stop-color="#FFA900"/>
</linearGradient>
<linearGradient id="paint1_linear_31_1228" x1="0" y1="0" x2="62.5426" y2="33.1214" gradientUnits="userSpaceOnUse">
<stop stop-color="white" stop-opacity="0.9"/>
<stop offset="1" stop-color="white" stop-opacity="0.2"/>
</linearGradient>
</defs>
</svg>
