<svg width="65" height="50" viewBox="0 0 65 50" fill="none" xmlns="http://www.w3.org/2000/svg">
<g filter="url(#filter0_b_23_2455)">
<path d="M55 25C55 37.4264 44.9264 47.5 32.5 47.5C20.0736 47.5 10 37.4264 10 25C10 12.5736 20.0736 2.5 32.5 2.5C44.9264 2.5 55 12.5736 55 25Z" fill="url(#paint0_linear_23_2455)"/>
<path d="M53.5 25C53.5 36.598 44.098 46 32.5 46C20.902 46 11.5 36.598 11.5 25C11.5 13.402 20.902 4 32.5 4C44.098 4 53.5 13.402 53.5 25Z" stroke="url(#paint1_linear_23_2455)" stroke-width="3"/>
</g>
<defs>
<filter id="filter0_b_23_2455" x="-52.0757" y="-59.5757" width="169.151" height="169.151" filterUnits="userSpaceOnUse" color-interpolation-filters="sRGB">
<feFlood flood-opacity="0" result="BackgroundImageFix"/>
<feGaussianBlur in="BackgroundImageFix" stdDeviation="31.0378"/>
<feComposite in2="SourceAlpha" operator="in" result="effect1_backgroundBlur_23_2455"/>
<feBlend mode="normal" in="SourceGraphic" in2="effect1_backgroundBlur_23_2455" result="shape"/>
</filter>
<linearGradient id="paint0_linear_23_2455" x1="41.5637" y1="4.58311" x2="22.6074" y2="47.4952" gradientUnits="userSpaceOnUse">
<stop stop-color="#FFD88B"/>
<stop offset="1" stop-color="#FFA900"/>
</linearGradient>
<linearGradient id="paint1_linear_23_2455" x1="10" y1="2.5" x2="64.1682" y2="28.1029" gradientUnits="userSpaceOnUse">
<stop stop-color="white"/>
<stop offset="1" stop-color="#F2E3D1" stop-opacity="0.3"/>
</linearGradient>
</defs>
</svg>
