<svg width="65" height="50" viewBox="0 0 65 50" fill="none" xmlns="http://www.w3.org/2000/svg">
<g filter="url(#filter0_b_35_4916)">
<path d="M19.5294 32.5724C13.1619 32.5724 8 27.7113 8 21.7149C8 16.4774 11.9381 12.106 17.178 11.0835C18.9793 4.70204 25.1566 0 32.5 0C40.8017 0 47.6129 6.00921 48.2965 13.6606C53.2129 14.2962 57 18.2677 57 23.0721C57 28.319 52.4833 32.5724 46.9118 32.5724H33.2206H19.5294Z" fill="url(#paint0_linear_35_4916)"/>
<path d="M17.4653 12.5557L18.3709 12.379L18.6216 11.491C20.2307 5.79044 25.7913 1.5 32.5 1.5C40.0932 1.5 46.1939 6.98242 46.8025 13.7941L46.9097 14.9938L48.1042 15.1482C52.3528 15.6975 55.5 19.0997 55.5 23.0721C55.5 27.407 51.741 31.0724 46.9118 31.0724H33.2206H19.5294C13.9042 31.0724 9.5 26.7993 9.5 21.7149C9.5 17.2697 12.8538 13.4556 17.4653 12.5557Z" stroke="url(#paint1_linear_35_4916)" stroke-width="3"/>
</g>
<path d="M29.642 37.1951H13.9213C13.3571 37.1951 12.9001 36.6486 12.9001 35.9753C12.9001 35.302 13.3571 34.7561 13.9213 34.7561H29.642C30.2057 34.7561 30.6626 35.302 30.6626 35.9753C30.6626 36.6486 30.2057 37.1951 29.642 37.1951Z" fill="url(#paint2_linear_35_4916)"/>
<path d="M38.7238 41.4634H21.3768C20.7542 41.4634 20.25 40.917 20.25 40.2436C20.25 39.5703 20.7542 39.0244 21.3768 39.0244H38.7238C39.3458 39.0244 39.85 39.5703 39.85 40.2436C39.85 40.917 39.3458 41.4634 38.7238 41.4634Z" fill="url(#paint3_linear_35_4916)"/>
<path d="M45.8133 50.0001H33.8872C33.4592 50.0001 33.1125 49.4536 33.1125 48.7802C33.1125 48.1069 33.4592 47.561 33.8872 47.561H45.8133C46.2409 47.561 46.5875 48.1069 46.5875 48.7802C46.5875 49.4536 46.2409 50.0001 45.8133 50.0001Z" fill="url(#paint4_linear_35_4916)"/>
<path d="M53.0929 45.7316H40.0826C39.6157 45.7316 39.2375 45.1851 39.2375 44.5118C39.2375 43.8385 39.6157 43.2926 40.0826 43.2926H53.0929C53.5594 43.2926 53.9375 43.8385 53.9375 44.5118C53.9375 45.1851 53.5594 45.7316 53.0929 45.7316Z" fill="url(#paint5_linear_35_4916)"/>
<path d="M52.8464 37.1951H36.0415C35.4384 37.1951 34.95 36.6486 34.95 35.9753C34.95 35.302 35.4384 34.7561 36.0415 34.7561H52.8464C53.449 34.7561 53.9375 35.302 53.9375 35.9753C53.9375 36.6486 53.449 37.1951 52.8464 37.1951Z" fill="url(#paint6_linear_35_4916)"/>
<path d="M30.1488 45.7316H12.8018C12.1793 45.7316 11.675 45.1851 11.675 44.5118C11.675 43.8385 12.1793 43.2926 12.8018 43.2926H30.1488C30.7708 43.2926 31.275 43.8385 31.275 44.5118C31.275 45.1851 30.7708 45.7316 30.1488 45.7316Z" fill="url(#paint7_linear_35_4916)"/>
<defs>
<filter id="filter0_b_35_4916" x="-4" y="-12" width="73" height="56.5724" filterUnits="userSpaceOnUse" color-interpolation-filters="sRGB">
<feFlood flood-opacity="0" result="BackgroundImageFix"/>
<feGaussianBlur in="BackgroundImageFix" stdDeviation="6"/>
<feComposite in2="SourceAlpha" operator="in" result="effect1_backgroundBlur_35_4916"/>
<feBlend mode="normal" in="SourceGraphic" in2="effect1_backgroundBlur_35_4916" result="shape"/>
</filter>
<linearGradient id="paint0_linear_35_4916" x1="8" y1="0" x2="55.9287" y2="34.0791" gradientUnits="userSpaceOnUse">
<stop stop-color="white"/>
<stop offset="1" stop-color="#F2E3D1" stop-opacity="0.3"/>
</linearGradient>
<linearGradient id="paint1_linear_35_4916" x1="8" y1="0" x2="48.0084" y2="31.8735" gradientUnits="userSpaceOnUse">
<stop stop-color="white" stop-opacity="0.9"/>
<stop offset="1" stop-color="white" stop-opacity="0.2"/>
</linearGradient>
<linearGradient id="paint2_linear_35_4916" x1="10.712" y1="34.3171" x2="23.2692" y2="47.9712" gradientUnits="userSpaceOnUse">
<stop stop-color="white" stop-opacity="0.6"/>
<stop offset="1" stop-color="white" stop-opacity="0"/>
</linearGradient>
<linearGradient id="paint3_linear_35_4916" x1="17.8355" y1="38.5854" x2="30.2305" y2="53.4574" gradientUnits="userSpaceOnUse">
<stop stop-color="white" stop-opacity="0.6"/>
<stop offset="1" stop-color="white" stop-opacity="0"/>
</linearGradient>
<linearGradient id="paint4_linear_35_4916" x1="31.4526" y1="47.122" x2="43.8239" y2="57.327" gradientUnits="userSpaceOnUse">
<stop stop-color="white" stop-opacity="0.6"/>
<stop offset="1" stop-color="white" stop-opacity="0"/>
</linearGradient>
<linearGradient id="paint5_linear_35_4916" x1="37.4267" y1="42.8536" x2="49.9582" y2="54.1304" gradientUnits="userSpaceOnUse">
<stop stop-color="white" stop-opacity="0.6"/>
<stop offset="1" stop-color="white" stop-opacity="0"/>
</linearGradient>
<linearGradient id="paint6_linear_35_4916" x1="32.6109" y1="34.3171" x2="45.0709" y2="48.7999" gradientUnits="userSpaceOnUse">
<stop stop-color="white" stop-opacity="0.6"/>
<stop offset="1" stop-color="white" stop-opacity="0"/>
</linearGradient>
<linearGradient id="paint7_linear_35_4916" x1="9.26056" y1="42.8536" x2="21.6556" y2="57.7255" gradientUnits="userSpaceOnUse">
<stop stop-color="white" stop-opacity="0.6"/>
<stop offset="1" stop-color="white" stop-opacity="0"/>
</linearGradient>
</defs>
</svg>
