<svg width="65" height="50" viewBox="0 0 65 50" fill="none" xmlns="http://www.w3.org/2000/svg">
<path fill-rule="evenodd" clip-rule="evenodd" d="M34.9395 35.264C35.6718 35.7514 35.8756 36.7481 35.3948 37.4903L29.8432 46.0593C29.3623 46.8015 28.3789 47.008 27.6466 46.5207C26.9144 46.0333 26.7105 45.0366 27.1914 44.2944L32.743 35.7254C33.2239 34.9832 34.2073 34.7767 34.9395 35.264ZM27.0086 36.8717C27.7409 37.359 27.9447 38.3557 27.4639 39.0979L21.9122 47.6669C21.4314 48.4091 20.448 48.6157 19.7157 48.1283C18.9835 47.641 18.7796 46.6443 19.2605 45.9021L24.8121 37.3331C25.293 36.5909 26.2764 36.3843 27.0086 36.8717ZM41.2843 38.4793C42.0165 38.9667 42.2204 39.9634 41.7395 40.7056L36.1879 49.2746C35.707 50.0168 34.7236 50.2233 33.9914 49.736C33.2591 49.2486 33.0553 48.2519 33.5361 47.5097L39.0878 38.9407C39.5686 38.1985 40.552 37.992 41.2843 38.4793Z" fill="url(#paint0_linear_23_2449)"/>
<g filter="url(#filter0_b_23_2449)">
<path d="M64 13.5C64 20.9558 57.9558 27 50.5 27C43.0442 27 37 20.9558 37 13.5C37 6.04416 43.0442 0 50.5 0C57.9558 0 64 6.04416 64 13.5Z" fill="url(#paint1_linear_23_2449)"/>
<path d="M62.5 13.5C62.5 20.1274 57.1274 25.5 50.5 25.5C43.8726 25.5 38.5 20.1274 38.5 13.5C38.5 6.87258 43.8726 1.5 50.5 1.5C57.1274 1.5 62.5 6.87258 62.5 13.5Z" stroke="url(#paint2_linear_23_2449)" stroke-width="3"/>
</g>
<g filter="url(#filter1_b_23_2449)">
<path d="M15.1176 43C7.32069 43 1 36.5827 1 28.6667C1 21.7523 5.82217 15.9815 12.2383 14.6317C14.4441 6.20733 22.008 0 31 0C41.1653 0 49.5056 7.93298 50.3427 18.0339C56.3627 18.8729 61 24.1158 61 30.4583C61 37.3849 55.4694 43 48.6471 43H31.8824H15.1176Z" fill="url(#paint3_linear_23_2449)"/>
<path d="M12.5471 16.0995L13.4546 15.9086L13.6894 15.0116C15.7303 7.217 22.7208 1.5 31 1.5C40.3596 1.5 48.0731 8.8091 48.8478 18.1577L48.9469 19.3538L50.1356 19.5195C55.4075 20.2543 59.5 24.8573 59.5 30.4583C59.5 36.578 54.6196 41.5 48.6471 41.5H31.8824H15.1176C8.17047 41.5 2.5 35.7758 2.5 28.6667C2.5 22.4608 6.82612 17.3031 12.5471 16.0995Z" stroke="url(#paint4_linear_23_2449)" stroke-width="3"/>
</g>
<defs>
<filter id="filter0_b_23_2449" x="-25.0757" y="-62.0757" width="151.151" height="151.151" filterUnits="userSpaceOnUse" color-interpolation-filters="sRGB">
<feFlood flood-opacity="0" result="BackgroundImageFix"/>
<feGaussianBlur in="BackgroundImageFix" stdDeviation="31.0378"/>
<feComposite in2="SourceAlpha" operator="in" result="effect1_backgroundBlur_23_2449"/>
<feBlend mode="normal" in="SourceGraphic" in2="effect1_backgroundBlur_23_2449" result="shape"/>
</filter>
<filter id="filter1_b_23_2449" x="-11" y="-12" width="84" height="67" filterUnits="userSpaceOnUse" color-interpolation-filters="sRGB">
<feFlood flood-opacity="0" result="BackgroundImageFix"/>
<feGaussianBlur in="BackgroundImageFix" stdDeviation="6"/>
<feComposite in2="SourceAlpha" operator="in" result="effect1_backgroundBlur_23_2449"/>
<feBlend mode="normal" in="SourceGraphic" in2="effect1_backgroundBlur_23_2449" result="shape"/>
</filter>
<linearGradient id="paint0_linear_23_2449" x1="30.5" y1="35" x2="30.5" y2="50" gradientUnits="userSpaceOnUse">
<stop stop-color="#0066FF"/>
<stop offset="1" stop-color="#00C2FF"/>
</linearGradient>
<linearGradient id="paint1_linear_23_2449" x1="55.9382" y1="1.24987" x2="44.5644" y2="26.9971" gradientUnits="userSpaceOnUse">
<stop stop-color="#FFD88B"/>
<stop offset="1" stop-color="#FFA900"/>
</linearGradient>
<linearGradient id="paint2_linear_23_2449" x1="37" y1="0" x2="65.1442" y2="14.9046" gradientUnits="userSpaceOnUse">
<stop stop-color="white" stop-opacity="0.9"/>
<stop offset="1" stop-color="white" stop-opacity="0.2"/>
</linearGradient>
<linearGradient id="paint3_linear_23_2449" x1="1" y1="0" x2="62.5759" y2="40.6106" gradientUnits="userSpaceOnUse">
<stop stop-color="white"/>
<stop offset="1" stop-color="#F2E3D1" stop-opacity="0.29"/>
</linearGradient>
<linearGradient id="paint4_linear_23_2449" x1="1" y1="0" x2="52.7986" y2="38.2766" gradientUnits="userSpaceOnUse">
<stop stop-color="white" stop-opacity="0.9"/>
<stop offset="1" stop-color="white" stop-opacity="0.2"/>
</linearGradient>
</defs>
</svg>
