<svg width="65" height="50" viewBox="0 0 65 50" fill="none" xmlns="http://www.w3.org/2000/svg">
<path d="M43.3003 42.8451C42.1496 42.8451 41.2134 41.8441 41.2134 40.6139C41.2134 40.3666 41.4009 40.1663 41.6321 40.1663C41.8632 40.1663 42.0506 40.3666 42.0506 40.6139C42.0506 41.3506 42.6113 41.95 43.3003 41.95C43.9895 41.95 44.5502 41.3506 44.5502 40.6139C44.5502 39.8771 43.9895 39.2779 43.3003 39.2779H25.3006C25.0692 39.2779 24.8818 39.0774 24.8818 38.8302C24.8818 38.5831 25.0692 38.3828 25.3006 38.3828H43.3003C44.4512 38.3828 45.3875 39.3836 45.3875 40.6139C45.3875 41.8441 44.4512 42.8451 43.3003 42.8451Z" fill="url(#paint0_linear_35_4999)"/>
<path d="M39.9091 49.9998C38.9561 49.9998 38.1807 49.1733 38.1807 48.1577C38.1807 47.9535 38.3361 47.7881 38.5275 47.7881C38.7189 47.7881 38.8741 47.9535 38.8741 48.1577C38.8741 48.7659 39.3384 49.2608 39.9091 49.2608C40.4798 49.2608 40.9442 48.7659 40.9442 48.1577C40.9442 47.5493 40.4798 47.0546 39.9091 47.0546H25.0023C24.8107 47.0546 24.6555 46.889 24.6555 46.685C24.6555 46.481 24.8107 46.3156 25.0023 46.3156H39.9091C40.8622 46.3156 41.6376 47.1418 41.6376 48.1577C41.6376 49.1733 40.8622 49.9998 39.9091 49.9998Z" fill="url(#paint1_linear_35_4999)"/>
<path d="M24.2406 41.128H20.3693C20.1363 41.128 19.9473 40.9489 19.9473 40.728C19.9473 40.5069 20.1363 40.3278 20.3693 40.3278H24.2406C24.4736 40.3278 24.6625 40.5069 24.6625 40.728C24.6625 40.9489 24.4736 41.128 24.2406 41.128Z" fill="url(#paint2_linear_35_4999)"/>
<path d="M35.4041 44.5612C34.2525 44.5612 33.3159 43.6115 33.3159 42.4445C33.3159 42.21 33.5034 42.0198 33.7347 42.0198C33.9659 42.0198 34.1536 42.21 34.1536 42.4445C34.1536 43.1433 34.7144 43.712 35.4041 43.712C36.0935 43.712 36.6546 43.1433 36.6546 42.4445C36.6546 41.7456 36.0935 41.1769 35.4041 41.1769H25.849C25.6177 41.1769 25.4302 40.9869 25.4302 40.7522C25.4302 40.5178 25.6177 40.3278 25.849 40.3278H35.4041C36.5555 40.3278 37.4923 41.2774 37.4923 42.4445C37.4923 43.6115 36.5555 44.5612 35.4041 44.5612Z" fill="url(#paint3_linear_35_4999)"/>
<path d="M31.37 43.1875H22.1224C21.8903 43.1875 21.7019 42.9828 21.7019 42.7301C21.7019 42.4776 21.8903 42.2729 22.1224 42.2729H31.37C31.6021 42.2729 31.7902 42.4776 31.7902 42.7301C31.7902 42.9828 31.6021 43.1875 31.37 43.1875Z" fill="url(#paint4_linear_35_4999)"/>
<path d="M27.6526 37.4669H21.3443C21.1179 37.4669 20.9346 37.2876 20.9346 37.0667C20.9346 36.8457 21.1179 36.6666 21.3443 36.6666H27.6526C27.8788 36.6666 28.0622 36.8457 28.0622 37.0667C28.0622 37.2876 27.8788 37.4669 27.6526 37.4669Z" fill="url(#paint5_linear_35_4999)"/>
<path d="M27.5062 45.3614H21.1978C20.9715 45.3614 20.7881 45.1821 20.7881 44.9612C20.7881 44.7403 20.9715 44.5612 21.1978 44.5612H27.5062C27.7323 44.5612 27.9157 44.7403 27.9157 44.9612C27.9157 45.1821 27.7323 45.3614 27.5062 45.3614Z" fill="url(#paint6_linear_35_4999)"/>
<g filter="url(#filter0_b_35_4999)">
<path d="M24.7497 29.9145C18.9294 29.9145 14.2112 25.4501 14.2112 19.943C14.2112 15.1328 17.8108 11.1181 22.6004 10.179C24.2469 4.31835 29.8932 0 36.6056 0C44.1937 0 50.4196 5.51885 51.0445 12.5459C55.5383 13.1296 58.9999 16.777 58.9999 21.1894C58.9999 26.0081 54.8715 29.9145 49.7787 29.9145H37.2642H24.7497Z" fill="url(#paint7_linear_35_4999)"/>
<path d="M22.889 11.651L23.7948 11.4734L24.0445 10.5847C25.5005 5.40198 30.5329 1.5 36.6056 1.5C43.4791 1.5 48.9997 6.4861 49.5504 12.6787L49.657 13.8783L50.8513 14.0334C54.672 14.5297 57.4999 17.6034 57.4999 21.1894C57.4999 25.1026 54.1223 28.4145 49.7787 28.4145H37.2642H24.7497C19.6786 28.4145 15.7112 24.5446 15.7112 19.943C15.7112 15.9199 18.7322 12.466 22.889 11.651Z" stroke="url(#paint8_linear_35_4999)" stroke-width="3"/>
</g>
<g filter="url(#filter1_b_35_4999)">
<path d="M14.8699 35.2564C9.9712 35.2564 6 31.4829 6 26.8281C6 22.7624 9.02971 19.369 13.0609 18.5753C14.4467 13.6216 19.1991 9.97156 24.8486 9.97156C31.2353 9.97156 36.4754 14.6363 37.0014 20.5758C40.7837 21.0692 43.6972 24.1521 43.6972 27.8817C43.6972 31.9546 40.2224 35.2564 35.936 35.2564H25.403H14.8699Z" fill="url(#paint9_linear_35_4999)"/>
<path d="M13.3507 20.047L14.2567 19.8686L14.5054 18.9794C15.7024 14.7009 19.8431 11.4716 24.8486 11.4716C30.5151 11.4716 35.0548 15.5982 35.5072 20.7081L35.6134 21.9075L36.8073 22.0632C39.9119 22.4682 42.1972 24.9735 42.1972 27.8817C42.1972 31.0549 39.4671 33.7564 35.936 33.7564H25.403H14.8699C10.7265 33.7564 7.5 30.5832 7.5 26.8281C7.5 23.5447 9.95623 20.7154 13.3507 20.047Z" stroke="url(#paint10_linear_35_4999)" stroke-width="3"/>
</g>
<defs>
<filter id="filter0_b_35_4999" x="2.21118" y="-12" width="68.7888" height="53.9144" filterUnits="userSpaceOnUse" color-interpolation-filters="sRGB">
<feFlood flood-opacity="0" result="BackgroundImageFix"/>
<feGaussianBlur in="BackgroundImageFix" stdDeviation="6"/>
<feComposite in2="SourceAlpha" operator="in" result="effect1_backgroundBlur_35_4999"/>
<feBlend mode="normal" in="SourceGraphic" in2="effect1_backgroundBlur_35_4999" result="shape"/>
</filter>
<filter id="filter1_b_35_4999" x="-6" y="-2.02844" width="61.6973" height="49.2848" filterUnits="userSpaceOnUse" color-interpolation-filters="sRGB">
<feFlood flood-opacity="0" result="BackgroundImageFix"/>
<feGaussianBlur in="BackgroundImageFix" stdDeviation="6"/>
<feComposite in2="SourceAlpha" operator="in" result="effect1_backgroundBlur_35_4999"/>
<feBlend mode="normal" in="SourceGraphic" in2="effect1_backgroundBlur_35_4999" result="shape"/>
</filter>
<linearGradient id="paint0_linear_35_4999" x1="45.7651" y1="38.3828" x2="34.8428" y2="51.4443" gradientUnits="userSpaceOnUse">
<stop stop-color="#FAFBFD"/>
<stop offset="1" stop-color="#C6D3E3" stop-opacity="0"/>
</linearGradient>
<linearGradient id="paint1_linear_35_4999" x1="41.9503" y1="46.3156" x2="32.9373" y2="57.1267" gradientUnits="userSpaceOnUse">
<stop stop-color="#FAFBFD"/>
<stop offset="1" stop-color="#C6D3E3" stop-opacity="0"/>
</linearGradient>
<linearGradient id="paint2_linear_35_4999" x1="24.7493" y1="40.3278" x2="22.928" y2="43.1204" gradientUnits="userSpaceOnUse">
<stop stop-color="#FAFBFD"/>
<stop offset="1" stop-color="#C6D3E3" stop-opacity="0"/>
</linearGradient>
<linearGradient id="paint3_linear_35_4999" x1="37.7144" y1="40.3278" x2="27.6401" y2="47.7975" gradientUnits="userSpaceOnUse">
<stop stop-color="#FAFBFD"/>
<stop offset="1" stop-color="#C6D3E3" stop-opacity="0"/>
</linearGradient>
<linearGradient id="paint4_linear_35_4999" x1="31.976" y1="42.2729" x2="30.5627" y2="46.3297" gradientUnits="userSpaceOnUse">
<stop stop-color="#FAFBFD"/>
<stop offset="1" stop-color="#C6D3E3" stop-opacity="0"/>
</linearGradient>
<linearGradient id="paint5_linear_35_4999" x1="28.1934" y1="36.6666" x2="26.7456" y2="40.0224" gradientUnits="userSpaceOnUse">
<stop stop-color="#FAFBFD"/>
<stop offset="1" stop-color="#C6D3E3" stop-opacity="0"/>
</linearGradient>
<linearGradient id="paint6_linear_35_4999" x1="28.047" y1="44.5612" x2="26.5991" y2="47.9169" gradientUnits="userSpaceOnUse">
<stop stop-color="#FAFBFD"/>
<stop offset="1" stop-color="#C6D3E3" stop-opacity="0"/>
</linearGradient>
<linearGradient id="paint7_linear_35_4999" x1="14.2112" y1="0" x2="58.16" y2="31.1014" gradientUnits="userSpaceOnUse">
<stop stop-color="white"/>
<stop offset="1" stop-color="#F2E3D1" stop-opacity="0.3"/>
</linearGradient>
<linearGradient id="paint8_linear_35_4999" x1="14.2112" y1="0" x2="50.9156" y2="29.1031" gradientUnits="userSpaceOnUse">
<stop stop-color="white" stop-opacity="0.9"/>
<stop offset="1" stop-color="white" stop-opacity="0.2"/>
</linearGradient>
<linearGradient id="paint9_linear_35_4999" x1="6" y1="9.97156" x2="43.0946" y2="36.1115" gradientUnits="userSpaceOnUse">
<stop stop-color="white"/>
<stop offset="1" stop-color="#F2E3D1" stop-opacity="0.3"/>
</linearGradient>
<linearGradient id="paint10_linear_35_4999" x1="6" y1="9.97156" x2="36.9938" y2="34.4428" gradientUnits="userSpaceOnUse">
<stop stop-color="white" stop-opacity="0.9"/>
<stop offset="1" stop-color="white" stop-opacity="0.2"/>
</linearGradient>
</defs>
</svg>
