<svg width="65" height="50" viewBox="0 0 65 50" fill="none" xmlns="http://www.w3.org/2000/svg">
<g filter="url(#filter0_b_35_4912)">
<path d="M57.4006 41.6999C54.1076 41.6999 51.3021 38.8619 51.3021 35.2215C51.3021 35.1798 51.3144 35.1514 51.3264 35.1344C51.3383 35.1514 51.3505 35.1797 51.3505 35.2215C51.3505 38.6143 53.9953 41.4991 57.4006 41.4991C60.8065 41.4991 63.4515 38.6144 63.4515 35.2215C63.4515 31.8276 60.8063 28.9439 57.4006 28.9439H5.6573C5.6523 28.9169 5.64868 28.8833 5.64868 28.8431C5.64868 28.8032 5.65224 28.7699 5.65716 28.743H57.4006C60.6946 28.743 63.5 31.5805 63.5 35.2215C63.5 38.8618 60.6945 41.6999 57.4006 41.6999Z" fill="url(#paint0_linear_35_4912)" stroke="url(#paint1_linear_35_4912)" stroke-width="3"/>
<mask id="path-2-inside-1_35_4912" fill="white">
<path d="M11.0639 19.0747H1.383C0.534775 19.0747 0 19.7157 0 20.5063C0 21.2977 0.534766 21.9387 1.38299 21.9387H11.0639C11.9121 21.9387 12.4469 21.2977 12.4469 20.5063C12.4469 19.7157 11.9121 19.0747 11.0639 19.0747Z"/>
</mask>
<path d="M11.0639 19.0747H1.383C0.534775 19.0747 0 19.7157 0 20.5063C0 21.2977 0.534766 21.9387 1.38299 21.9387H11.0639C11.9121 21.9387 12.4469 21.2977 12.4469 20.5063C12.4469 19.7157 11.9121 19.0747 11.0639 19.0747Z" fill="url(#paint2_linear_35_4912)"/>
<path d="M11.0639 22.0747H1.383V16.0747H11.0639V22.0747ZM1.383 22.0747C1.7597 22.0747 2.22383 21.9114 2.57542 21.5314C2.90239 21.1781 3 20.7835 3 20.5063H-3C-3 18.2825 -1.33724 16.0747 1.383 16.0747V22.0747ZM3 20.5063C3 20.2302 2.90281 19.8358 2.57577 19.4822C2.22408 19.102 1.75974 18.9387 1.38299 18.9387V24.9387C-1.33821 24.9387 -3 22.7299 -3 20.5063H3ZM1.38299 18.9387H11.0639V24.9387H1.38299V18.9387ZM11.0639 18.9387C10.6872 18.9387 10.2228 19.102 9.87111 19.4822C9.54408 19.8358 9.44689 20.2302 9.44689 20.5063H15.4469C15.4469 22.7299 13.7851 24.9387 11.0639 24.9387V18.9387ZM9.44689 20.5063C9.44689 20.7835 9.54449 21.178 9.87146 21.5314C10.2231 21.9114 10.6872 22.0747 11.0639 22.0747V16.0747C13.7842 16.0747 15.4469 18.2825 15.4469 20.5063H9.44689Z" fill="url(#paint3_linear_35_4912)" mask="url(#path-2-inside-1_35_4912)"/>
<path d="M47.5193 8.30012C44.1486 8.30012 41.4161 11.0306 41.4161 14.3694C41.4161 14.3722 41.4163 14.3733 41.4164 14.3734L41.4166 14.374C41.4169 14.3748 41.4182 14.3774 41.4213 14.3805C41.4245 14.3836 41.4277 14.3855 41.4299 14.3865C41.431 14.3869 41.432 14.3873 41.4333 14.3875C41.4345 14.3878 41.4368 14.3881 41.4408 14.3881C41.4424 14.3881 41.4438 14.3881 41.4449 14.388C41.4466 14.3879 41.4478 14.3877 41.4485 14.3875C41.4492 14.3874 41.4498 14.3872 41.4504 14.387C41.451 14.3868 41.4515 14.3866 41.4521 14.3864C41.4545 14.3854 41.4579 14.3834 41.4611 14.3801C41.4643 14.3769 41.4657 14.3743 41.466 14.3736L41.4661 14.3731C41.4661 14.3731 41.4662 14.3729 41.4662 14.3724C41.4663 14.3718 41.4664 14.3709 41.4664 14.3694C41.4664 11.0358 44.186 8.3368 47.5193 8.3368C50.8516 8.3368 53.5722 11.0356 53.5722 14.3694C53.5722 17.7032 50.8516 20.402 47.5193 20.402H17.6351C17.6349 20.4079 17.6348 20.4142 17.6348 20.4208C17.6348 20.4271 17.6349 20.4331 17.6351 20.4387H47.5193C50.8893 20.4387 53.6225 17.7081 53.6225 14.3694C53.6225 11.0307 50.8893 8.30012 47.5193 8.30012Z" fill="url(#paint4_linear_35_4912)" stroke="url(#paint5_linear_35_4912)" stroke-width="3"/>
</g>
<defs>
<filter id="filter0_b_35_4912" x="-12" y="-5.19983" width="89" height="60.3998" filterUnits="userSpaceOnUse" color-interpolation-filters="sRGB">
<feFlood flood-opacity="0" result="BackgroundImageFix"/>
<feGaussianBlur in="BackgroundImageFix" stdDeviation="6"/>
<feComposite in2="SourceAlpha" operator="in" result="effect1_backgroundBlur_35_4912"/>
<feBlend mode="normal" in="SourceGraphic" in2="effect1_backgroundBlur_35_4912" result="shape"/>
</filter>
<linearGradient id="paint0_linear_35_4912" x1="66.1204" y1="27.243" x2="26.4375" y2="66.624" gradientUnits="userSpaceOnUse">
<stop stop-color="#FAFBFD"/>
<stop offset="1" stop-color="#C6D3E3" stop-opacity="0"/>
</linearGradient>
<linearGradient id="paint1_linear_35_4912" x1="66.1204" y1="27.243" x2="26.4375" y2="66.624" gradientUnits="userSpaceOnUse">
<stop stop-color="#FAFBFD"/>
<stop offset="1" stop-color="#C6D3E3" stop-opacity="0"/>
</linearGradient>
<linearGradient id="paint2_linear_35_4912" x1="12.6761" y1="21.9387" x2="5.60687" y2="13.9439" gradientUnits="userSpaceOnUse">
<stop stop-color="#FAFBFD"/>
<stop offset="1" stop-color="#C6D3E3" stop-opacity="0"/>
</linearGradient>
<linearGradient id="paint3_linear_35_4912" x1="12.6761" y1="21.9387" x2="5.60687" y2="13.9439" gradientUnits="userSpaceOnUse">
<stop stop-color="#FAFBFD"/>
<stop offset="1" stop-color="#C6D3E3" stop-opacity="0"/>
</linearGradient>
<linearGradient id="paint4_linear_35_4912" x1="55.8404" y1="21.9387" x2="21.0171" y2="-1.39976" gradientUnits="userSpaceOnUse">
<stop stop-color="#FAFBFD"/>
<stop offset="1" stop-color="#C6D3E3" stop-opacity="0"/>
</linearGradient>
<linearGradient id="paint5_linear_35_4912" x1="55.8404" y1="21.9387" x2="21.0171" y2="-1.39976" gradientUnits="userSpaceOnUse">
<stop stop-color="#FAFBFD"/>
<stop offset="1" stop-color="#C6D3E3" stop-opacity="0"/>
</linearGradient>
</defs>
</svg>
