<svg width="90" height="60" viewBox="0 0 90 60" fill="none" xmlns="http://www.w3.org/2000/svg">
<path d="M79.4778 54.9999C73.6769 54.9999 68.9567 50.0832 68.9567 44.0405C68.9567 42.8256 69.9025 41.8416 71.0677 41.8416C72.233 41.8416 73.1776 42.8256 73.1776 44.0405C73.1776 47.6588 76.0042 50.6032 79.4778 50.6032C82.9525 50.6032 85.7791 47.6588 85.7791 44.0405C85.7791 40.4211 82.9525 37.4779 79.4778 37.4779H7.65929C6.49298 37.4779 5.74438 36.4927 5.74438 35.2789C5.74438 34.0651 6.49298 33.0811 7.65929 33.0811H79.4778C85.2799 33.0811 90 37.9968 90 44.0405C90 50.0832 85.2799 54.9999 79.4778 54.9999Z" fill="url(#paint0_linear_35_1714)"/>
<path d="M15.3192 21.8606H1.91492C0.740457 21.8606 0 22.7411 0 23.8272C0 24.9143 0.740445 25.7947 1.91491 25.7947H15.3192C16.4937 25.7947 17.2341 24.9143 17.2341 23.8272C17.2341 22.7411 16.4937 21.8606 15.3192 21.8606Z" fill="url(#paint1_linear_35_1714)"/>
<path d="M65.7958 4.99996C59.9903 4.99996 55.2683 9.6646 55.2683 15.3973C55.2683 16.5489 56.2136 17.4835 57.3795 17.4835C58.5455 17.4835 59.4918 16.5489 59.4918 15.3973C59.4918 11.9646 62.319 9.17122 65.7958 9.17122C69.2715 9.17122 72.0998 11.9646 72.0998 15.3973C72.0998 18.8301 69.2715 21.6235 65.7958 21.6235H24.2552C23.0893 21.6235 22.3403 22.557 22.3403 23.7096C22.3403 24.8612 23.0893 25.7947 24.2552 25.7947H65.7958C71.6003 25.7947 76.3233 21.1301 76.3233 15.3973C76.3233 9.6646 71.6003 4.99996 65.7958 4.99996Z" fill="url(#paint2_linear_35_1714)"/>
<defs>
<linearGradient id="paint0_linear_35_1714" x1="91.5514" y1="33.0811" x2="37.0403" y2="87.6102" gradientUnits="userSpaceOnUse">
<stop stop-color="#FAFBFD"/>
<stop offset="1" stop-color="#C6D3E3" stop-opacity="0"/>
</linearGradient>
<linearGradient id="paint1_linear_35_1714" x1="17.5515" y1="25.7947" x2="7.85082" y2="14.7361" gradientUnits="userSpaceOnUse">
<stop stop-color="#FAFBFD"/>
<stop offset="1" stop-color="#C6D3E3" stop-opacity="0"/>
</linearGradient>
<linearGradient id="paint2_linear_35_1714" x1="77.3173" y1="25.7947" x2="29.3394" y2="-6.61721" gradientUnits="userSpaceOnUse">
<stop stop-color="#FAFBFD"/>
<stop offset="1" stop-color="#C6D3E3" stop-opacity="0"/>
</linearGradient>
</defs>
</svg>
