<svg width="150" height="115" viewBox="0 0 150 115" fill="none" xmlns="http://www.w3.org/2000/svg">
<path d="M132.463 99.5C122.795 99.5 114.928 91.2398 114.928 81.0882C114.928 79.0472 116.504 77.394 118.446 77.394C120.388 77.394 121.963 79.0472 121.963 81.0882C121.963 87.167 126.674 92.1135 132.463 92.1135C138.254 92.1135 142.965 87.167 142.965 81.0882C142.965 75.0076 138.254 70.0629 132.463 70.0629H12.7655C10.8216 70.0629 9.57397 68.4079 9.57397 66.3687C9.57397 64.3295 10.8216 62.6764 12.7655 62.6764H132.463C142.133 62.6764 150 70.9347 150 81.0882C150 91.2398 142.133 99.5 132.463 99.5Z" fill="url(#paint0_linear_35_4797)"/>
<path d="M25.5321 43.8259H3.19153C1.2341 43.8259 0 45.3051 0 47.1297C0 48.956 1.23408 50.4352 3.19151 50.4352H25.5321C27.4895 50.4352 28.7236 48.956 28.7236 47.1297C28.7236 45.3051 27.4895 43.8259 25.5321 43.8259Z" fill="url(#paint1_linear_35_4797)"/>
<path d="M109.66 15.5001C99.9838 15.5001 92.1139 23.3367 92.1139 32.9677C92.1139 34.9023 93.6893 36.4724 95.6325 36.4724C97.5758 36.4724 99.153 34.9023 99.153 32.9677C99.153 27.2006 103.865 22.5078 109.66 22.5078C115.453 22.5078 120.166 27.2006 120.166 32.9677C120.166 38.7347 115.453 43.4276 109.66 43.4276H40.4254C38.4821 43.4276 37.2339 44.9959 37.2339 46.9323C37.2339 48.8669 38.4821 50.4353 40.4254 50.4353H109.66C119.334 50.4353 127.206 42.5987 127.206 32.9677C127.206 23.3367 119.334 15.5001 109.66 15.5001Z" fill="url(#paint2_linear_35_4797)"/>
<defs>
<linearGradient id="paint0_linear_35_4797" x1="152.586" y1="62.6764" x2="61.0097" y2="153.556" gradientUnits="userSpaceOnUse">
<stop stop-color="#FAFBFD"/>
<stop offset="1" stop-color="#C6D3E3" stop-opacity="0"/>
</linearGradient>
<linearGradient id="paint1_linear_35_4797" x1="29.2525" y1="50.4352" x2="12.9389" y2="31.9856" gradientUnits="userSpaceOnUse">
<stop stop-color="#FAFBFD"/>
<stop offset="1" stop-color="#C6D3E3" stop-opacity="0"/>
</linearGradient>
<linearGradient id="paint2_linear_35_4797" x1="128.862" y1="50.4353" x2="48.5009" y2="-3.42272" gradientUnits="userSpaceOnUse">
<stop stop-color="#FAFBFD"/>
<stop offset="1" stop-color="#C6D3E3" stop-opacity="0"/>
</linearGradient>
</defs>
</svg>
