<svg width="65" height="50" viewBox="0 0 65 50" fill="none" xmlns="http://www.w3.org/2000/svg">
<g filter="url(#filter0_b_23_2435)">
<path d="M16.0882 47C8.03138 47 1.5 40.4335 1.5 32.3333C1.5 25.2582 6.48291 19.3532 13.1129 17.9719C15.3922 9.35169 23.2083 3 32.5 3C43.0041 3 51.6225 11.1175 52.4874 21.4532C58.7082 22.3118 63.5 27.6766 63.5 34.1667C63.5 41.2543 57.785 47 50.7353 47H33.4118H16.0882Z" fill="url(#paint0_linear_23_2435)"/>
<path d="M13.4189 19.4404L14.3262 19.2514L14.5631 18.3554C16.674 10.372 23.9108 4.5 32.5 4.5C42.211 4.5 50.1917 12.0065 50.9927 21.5783L51.0928 22.775L52.2824 22.9392C57.765 23.6959 62 28.43 62 34.1667C62 40.4335 56.949 45.5 50.7353 45.5H33.4118H16.0882C8.86738 45.5 3 39.6127 3 32.3333C3 25.9776 7.4757 20.6786 13.4189 19.4404Z" stroke="url(#paint1_linear_23_2435)" stroke-width="3"/>
</g>
<defs>
<filter id="filter0_b_23_2435" x="-10.5" y="-9" width="86" height="68" filterUnits="userSpaceOnUse" color-interpolation-filters="sRGB">
<feFlood flood-opacity="0" result="BackgroundImageFix"/>
<feGaussianBlur in="BackgroundImageFix" stdDeviation="6"/>
<feComposite in2="SourceAlpha" operator="in" result="effect1_backgroundBlur_23_2435"/>
<feBlend mode="normal" in="SourceGraphic" in2="effect1_backgroundBlur_23_2435" result="shape"/>
</filter>
<linearGradient id="paint0_linear_23_2435" x1="1.5" y1="3" x2="64.7489" y2="45.1248" gradientUnits="userSpaceOnUse">
<stop stop-color="white"/>
<stop offset="1" stop-color="#F2E3D1" stop-opacity="0.3"/>
</linearGradient>
<linearGradient id="paint1_linear_23_2435" x1="1.5" y1="3" x2="54.6536" y2="42.6647" gradientUnits="userSpaceOnUse">
<stop stop-color="white" stop-opacity="0.9"/>
<stop offset="1" stop-color="white" stop-opacity="0.2"/>
</linearGradient>
</defs>
</svg>
