<svg width="65" height="50" viewBox="0 0 65 50" fill="none" xmlns="http://www.w3.org/2000/svg">
<g filter="url(#filter0_b_35_4997)">
<path fill-rule="evenodd" clip-rule="evenodd" d="M59.764 22.6433C58.1838 23.1679 56.4923 23.4521 54.7343 23.4521C46.0076 23.4521 38.9333 16.4527 38.9333 7.81854C38.9333 5.22687 39.5709 2.78183 40.6995 0.629293C35.5413 3.03296 31.9717 8.22287 31.9717 14.237C31.9717 22.5395 38.7743 29.27 47.1657 29.27C52.4094 29.27 57.0331 26.642 59.764 22.6433ZM60.0357 22.2312C58.3818 22.8269 56.5964 23.1518 54.7343 23.1518C46.1752 23.1518 39.2368 16.2869 39.2368 7.81854C39.2368 5.13846 39.9317 2.61898 41.1531 0.426887C41.2332 0.283168 41.3155 0.140857 41.4001 0C41.2447 0.0616532 41.0905 0.125724 40.9377 0.192166C35.4798 2.56479 31.6682 7.9605 31.6682 14.237C31.6682 22.7053 38.6067 29.5703 47.1657 29.5703C52.659 29.5703 57.4847 26.7425 60.237 22.4779C60.3268 22.3386 60.4145 22.1978 60.4999 22.0555C60.3464 22.1165 60.1916 22.175 60.0357 22.2312Z" fill="url(#paint0_linear_35_4997)"/>
</g>
<g filter="url(#filter1_b_35_4997)">
<path fill-rule="evenodd" clip-rule="evenodd" d="M60.4999 22.0555C58.7177 22.7627 56.7719 23.1518 54.7343 23.1518C46.1752 23.1518 39.2368 16.2869 39.2368 7.81854C39.2368 4.96275 40.0259 2.28931 41.4001 0C35.6962 2.26329 31.6682 7.78473 31.6682 14.237C31.6682 22.7053 38.6067 29.5703 47.1657 29.5703C52.8384 29.5703 57.7992 26.5548 60.4999 22.0555Z" fill="url(#paint1_linear_35_4997)"/>
<path d="M54.7343 24.1518C55.8243 24.1518 56.8903 24.047 57.9223 23.8469C55.2698 26.7473 51.4342 28.5703 47.1657 28.5703C39.1489 28.5703 32.6682 22.143 32.6682 14.237C32.6682 9.22481 35.2717 4.80718 39.2228 2.24412C38.5848 3.98406 38.2368 5.8616 38.2368 7.81854C38.2368 16.8492 45.633 24.1518 54.7343 24.1518Z" stroke="url(#paint2_linear_35_4997)" stroke-width="2"/>
</g>
<g filter="url(#filter2_b_35_4997)">
<path d="M16.3326 50C9.79762 50 4.5 44.7527 4.5 38.2798C4.5 32.626 8.54166 27.9073 13.9193 26.8035C15.768 19.915 22.1077 14.8394 29.6442 14.8394C38.1642 14.8394 45.1545 21.3261 45.8561 29.5854C50.9017 30.2715 54.7884 34.5586 54.7884 39.7448C54.7884 45.4086 50.153 50 44.4349 50H30.3838H16.3326Z" fill="url(#paint3_linear_35_4997)"/>
<path d="M14.2209 28.2729L15.128 28.0867L15.368 27.1923C17.043 20.9513 22.7947 16.3394 29.6442 16.3394C37.3902 16.3394 43.7263 22.2346 44.3615 29.7124L44.4632 30.9098L45.654 31.0718C49.9772 31.6596 53.2884 35.3299 53.2884 39.7448C53.2884 44.5667 49.3381 48.5 44.4349 48.5H30.3838H16.3326C10.6125 48.5 6 43.9108 6 38.2798C6 33.362 9.51727 29.2383 14.2209 28.2729Z" stroke="url(#paint4_linear_35_4997)" stroke-width="3"/>
</g>
<defs>
<filter id="filter0_b_35_4997" x="-30.4074" y="-62.0757" width="152.983" height="153.722" filterUnits="userSpaceOnUse" color-interpolation-filters="sRGB">
<feFlood flood-opacity="0" result="BackgroundImageFix"/>
<feGaussianBlur in="BackgroundImageFix" stdDeviation="31.0378"/>
<feComposite in2="SourceAlpha" operator="in" result="effect1_backgroundBlur_35_4997"/>
<feBlend mode="normal" in="SourceGraphic" in2="effect1_backgroundBlur_35_4997" result="shape"/>
</filter>
<filter id="filter1_b_35_4997" x="-30.4074" y="-62.0757" width="152.983" height="153.722" filterUnits="userSpaceOnUse" color-interpolation-filters="sRGB">
<feFlood flood-opacity="0" result="BackgroundImageFix"/>
<feGaussianBlur in="BackgroundImageFix" stdDeviation="31.0378"/>
<feComposite in2="SourceAlpha" operator="in" result="effect1_backgroundBlur_35_4997"/>
<feBlend mode="normal" in="SourceGraphic" in2="effect1_backgroundBlur_35_4997" result="shape"/>
</filter>
<filter id="filter2_b_35_4997" x="-7.5" y="2.83936" width="74.2883" height="59.1606" filterUnits="userSpaceOnUse" color-interpolation-filters="sRGB">
<feFlood flood-opacity="0" result="BackgroundImageFix"/>
<feGaussianBlur in="BackgroundImageFix" stdDeviation="6"/>
<feComposite in2="SourceAlpha" operator="in" result="effect1_backgroundBlur_35_4997"/>
<feBlend mode="normal" in="SourceGraphic" in2="effect1_backgroundBlur_35_4997" result="shape"/>
</filter>
<linearGradient id="paint0_linear_35_4997" x1="31.6682" y1="0" x2="62.05" y2="15.6877" gradientUnits="userSpaceOnUse">
<stop stop-color="white" stop-opacity="0.9"/>
<stop offset="1" stop-color="white" stop-opacity="0.2"/>
</linearGradient>
<linearGradient id="paint1_linear_35_4997" x1="31.6682" y1="0" x2="66.6895" y2="16.1396" gradientUnits="userSpaceOnUse">
<stop stop-color="#262949"/>
<stop offset="1" stop-color="#9192A2" stop-opacity="0.3"/>
</linearGradient>
<linearGradient id="paint2_linear_35_4997" x1="32.7356" y1="0.950475" x2="63.8511" y2="16.7158" gradientUnits="userSpaceOnUse">
<stop stop-color="#262949"/>
<stop offset="1" stop-color="white" stop-opacity="0.2"/>
</linearGradient>
<linearGradient id="paint3_linear_35_4997" x1="4.5" y1="14.8394" x2="55.3289" y2="49.2005" gradientUnits="userSpaceOnUse">
<stop stop-color="white"/>
<stop offset="1" stop-color="#F2E3D1" stop-opacity="0.3"/>
</linearGradient>
<linearGradient id="paint4_linear_35_4997" x1="4.5" y1="14.8394" x2="47.1515" y2="47.145" gradientUnits="userSpaceOnUse">
<stop stop-color="white" stop-opacity="0.9"/>
<stop offset="1" stop-color="white" stop-opacity="0.2"/>
</linearGradient>
</defs>
</svg>
