<svg width="68" height="60" viewBox="0 0 68 60" fill="none" xmlns="http://www.w3.org/2000/svg">
<g filter="url(#filter0_b_35_1419)">
<path fill-rule="evenodd" clip-rule="evenodd" d="M67.1066 27.3054C65.1877 27.9381 63.1338 28.2808 60.999 28.2808C50.4024 28.2808 41.8121 19.8402 41.8121 9.42834C41.8121 6.30306 42.5863 3.35459 43.9568 0.758862C37.6932 3.65743 33.3588 9.91592 33.3588 17.1683C33.3588 27.1803 41.619 35.2966 51.8086 35.2966C58.176 35.2966 63.7904 32.1274 67.1066 27.3054ZM67.4364 26.8085C65.4281 27.5268 63.2601 27.9187 60.999 27.9187C50.6059 27.9187 42.1806 19.6403 42.1806 9.42834C42.1806 6.19645 43.0245 3.15822 44.5076 0.514781C44.6048 0.341471 44.7048 0.169859 44.8075 0C44.6188 0.0743473 44.4316 0.151611 44.246 0.231732C37.6186 3.09287 32.9902 9.59952 32.9902 17.1683C32.9902 27.3803 41.4155 35.6587 51.8086 35.6587C58.479 35.6587 64.3388 32.2486 67.6808 27.106C67.79 26.938 67.8964 26.7683 68.0001 26.5967C67.8137 26.6701 67.6257 26.7408 67.4364 26.8085Z" fill="url(#paint0_linear_35_1419)"/>
</g>
<g filter="url(#filter1_b_35_1419)">
<path fill-rule="evenodd" clip-rule="evenodd" d="M68.0001 26.5967C65.836 27.4495 63.4733 27.9187 60.999 27.9187C50.6059 27.9187 42.1806 19.6403 42.1806 9.42834C42.1806 5.98456 43.1388 2.76066 44.8075 0C37.8814 2.72929 32.9902 9.38757 32.9902 17.1683C32.9902 27.3803 41.4155 35.6587 51.8086 35.6587C58.6968 35.6587 64.7206 32.0223 68.0001 26.5967Z" fill="url(#paint1_linear_35_1419)"/>
<path d="M60.999 29.4187C62.0322 29.4187 63.0479 29.3427 64.0406 29.196C60.9095 32.261 56.5876 34.1587 51.8086 34.1587C42.219 34.1587 34.4902 26.5271 34.4902 17.1683C34.4902 11.5347 37.2878 6.52886 41.6102 3.43435C41.0063 5.32704 40.6806 7.3408 40.6806 9.42834C40.6806 20.4934 49.8024 29.4187 60.999 29.4187Z" stroke="url(#paint2_linear_35_1419)" stroke-width="3"/>
</g>
<g filter="url(#filter2_b_35_1419)">
<path d="M14.3681 60C6.43282 60 0 53.6723 0 45.8666C0 39.0488 4.90772 33.3585 11.4377 32.0275C13.6826 23.7207 21.3807 17.6 30.5322 17.6C40.8779 17.6 49.3662 25.4223 50.2181 35.3822C56.3449 36.2095 61.0645 41.3793 61.0645 47.6333C61.0645 54.4632 55.4357 60 48.4924 60H31.4302H14.3681Z" fill="url(#paint3_linear_35_1419)"/>
<path d="M11.8372 33.9872L13.0465 33.7407L13.3685 32.5493C15.3783 25.1121 22.2871 19.6 30.5322 19.6C39.8578 19.6 47.4635 26.6457 48.2254 35.5526L48.362 37.1497L49.9504 37.3642C55.1238 38.0628 59.0645 42.4189 59.0645 47.6333C59.0645 53.3277 54.3624 58 48.4924 58H31.4302H14.3681C7.5062 58 2 52.5368 2 45.8666C2 40.0405 6.19778 35.1367 11.8372 33.9872Z" stroke="url(#paint4_linear_35_1419)" stroke-width="4"/>
</g>
<defs>
<filter id="filter0_b_35_1419" x="-29.0854" y="-62.0757" width="159.161" height="159.81" filterUnits="userSpaceOnUse" color-interpolation-filters="sRGB">
<feFlood flood-opacity="0" result="BackgroundImageFix"/>
<feGaussianBlur in="BackgroundImageFix" stdDeviation="31.0378"/>
<feComposite in2="SourceAlpha" operator="in" result="effect1_backgroundBlur_35_1419"/>
<feBlend mode="normal" in="SourceGraphic" in2="effect1_backgroundBlur_35_1419" result="shape"/>
</filter>
<filter id="filter1_b_35_1419" x="-29.0854" y="-62.0757" width="159.161" height="159.81" filterUnits="userSpaceOnUse" color-interpolation-filters="sRGB">
<feFlood flood-opacity="0" result="BackgroundImageFix"/>
<feGaussianBlur in="BackgroundImageFix" stdDeviation="31.0378"/>
<feComposite in2="SourceAlpha" operator="in" result="effect1_backgroundBlur_35_1419"/>
<feBlend mode="normal" in="SourceGraphic" in2="effect1_backgroundBlur_35_1419" result="shape"/>
</filter>
<filter id="filter2_b_35_1419" x="-12" y="5.59998" width="85.0645" height="66.4" filterUnits="userSpaceOnUse" color-interpolation-filters="sRGB">
<feFlood flood-opacity="0" result="BackgroundImageFix"/>
<feGaussianBlur in="BackgroundImageFix" stdDeviation="6"/>
<feComposite in2="SourceAlpha" operator="in" result="effect1_backgroundBlur_35_1419"/>
<feBlend mode="normal" in="SourceGraphic" in2="effect1_backgroundBlur_35_1419" result="shape"/>
</filter>
<linearGradient id="paint0_linear_35_1419" x1="32.9902" y1="0" x2="69.7742" y2="19.1257" gradientUnits="userSpaceOnUse">
<stop stop-color="white" stop-opacity="0.9"/>
<stop offset="1" stop-color="white" stop-opacity="0.2"/>
</linearGradient>
<linearGradient id="paint1_linear_35_1419" x1="32.9902" y1="0" x2="75.4122" y2="19.6862" gradientUnits="userSpaceOnUse">
<stop stop-color="#262949"/>
<stop offset="1" stop-color="#9192A2" stop-opacity="0.3"/>
</linearGradient>
<linearGradient id="paint2_linear_35_1419" x1="34.2863" y1="1.14617" x2="71.962" y2="20.3682" gradientUnits="userSpaceOnUse">
<stop stop-color="#262949"/>
<stop offset="1" stop-color="white" stop-opacity="0.2"/>
</linearGradient>
<linearGradient id="paint3_linear_35_1419" x1="0" y1="17.6" x2="61.4516" y2="59.4313" gradientUnits="userSpaceOnUse">
<stop stop-color="white"/>
<stop offset="1" stop-color="#F2E3D1" stop-opacity="0.3"/>
</linearGradient>
<linearGradient id="paint4_linear_35_1419" x1="0" y1="17.6" x2="51.5288" y2="56.9011" gradientUnits="userSpaceOnUse">
<stop stop-color="white" stop-opacity="0.9"/>
<stop offset="1" stop-color="white" stop-opacity="0.2"/>
</linearGradient>
</defs>
</svg>
