<svg width="65" height="50" viewBox="0 0 65 50" fill="none" xmlns="http://www.w3.org/2000/svg">
<path fill-rule="evenodd" clip-rule="evenodd" d="M36.3583 35.1966C37.1052 35.6862 37.3132 36.6875 36.8227 37.433L31.1596 46.0412C30.6691 46.7867 29.666 46.9943 28.919 46.5047C28.1721 46.0151 27.9642 45.0138 28.4546 44.2683L34.1177 35.6601C34.6082 34.9146 35.6113 34.707 36.3583 35.1966ZM28.2682 36.8116C29.0152 37.3012 29.2231 38.3025 28.7326 39.048L23.0696 47.6562C22.5791 48.4017 21.5759 48.6093 20.829 48.1197C20.082 47.6301 19.8741 46.6288 20.3646 45.8833L26.0276 37.2751C26.5181 36.5296 27.5213 36.322 28.2682 36.8116ZM42.8303 38.4266C43.5773 38.9162 43.7852 39.9175 43.2947 40.663L37.6317 49.2712C37.1412 50.0167 36.138 50.2243 35.3911 49.7347C34.6441 49.2451 34.4362 48.2438 34.9267 47.4983L40.5897 38.8901C41.0802 38.1446 42.0834 37.937 42.8303 38.4266Z" fill="url(#paint0_linear_35_4918)"/>
<g filter="url(#filter0_b_35_4918)">
<path d="M16.3529 42.4658C8.42603 42.4658 2 36.1283 2 28.3105C2 21.4821 6.90254 15.783 13.4256 14.4499C15.6681 6.13021 23.3582 0 32.5 0C42.8347 0 51.3141 7.83442 52.1651 17.8098C58.2854 18.6384 63 23.8162 63 30.0799C63 36.9204 57.3772 42.4658 50.4412 42.4658H33.3971H16.3529Z" fill="url(#paint1_linear_35_4918)"/>
<path d="M13.726 15.9195L14.633 15.7342L14.8739 14.8403C16.9411 7.17104 24.0407 1.5 32.5 1.5C42.0663 1.5 49.8866 8.74862 50.6705 17.9373L50.7727 19.135L51.9638 19.2962C57.3663 20.0277 61.5 24.5928 61.5 30.0799C61.5 36.0725 56.5685 40.9658 50.4412 40.9658H33.3971H16.3529C9.23478 40.9658 3.5 35.2803 3.5 28.3105C3.5 22.2229 7.87312 17.1156 13.726 15.9195Z" stroke="url(#paint2_linear_35_4918)" stroke-width="3"/>
</g>
<defs>
<filter id="filter0_b_35_4918" x="-10" y="-12" width="85" height="66.4658" filterUnits="userSpaceOnUse" color-interpolation-filters="sRGB">
<feFlood flood-opacity="0" result="BackgroundImageFix"/>
<feGaussianBlur in="BackgroundImageFix" stdDeviation="6"/>
<feComposite in2="SourceAlpha" operator="in" result="effect1_backgroundBlur_35_4918"/>
<feBlend mode="normal" in="SourceGraphic" in2="effect1_backgroundBlur_35_4918" result="shape"/>
</filter>
<linearGradient id="paint0_linear_35_4918" x1="31.8296" y1="34.9314" x2="31.8296" y2="49.9999" gradientUnits="userSpaceOnUse">
<stop stop-color="#0066FF"/>
<stop offset="1" stop-color="#00C2FF"/>
</linearGradient>
<linearGradient id="paint1_linear_35_4918" x1="2" y1="0" x2="63.488" y2="41.7471" gradientUnits="userSpaceOnUse">
<stop stop-color="white"/>
<stop offset="1" stop-color="#F2E3D1" stop-opacity="0.29"/>
</linearGradient>
<linearGradient id="paint2_linear_35_4918" x1="2" y1="0" x2="53.573" y2="39.2324" gradientUnits="userSpaceOnUse">
<stop stop-color="white" stop-opacity="0.9"/>
<stop offset="1" stop-color="white" stop-opacity="0.2"/>
</linearGradient>
</defs>
</svg>
