<svg width="76" height="60" viewBox="0 0 76 60" fill="none" xmlns="http://www.w3.org/2000/svg">
<path fill-rule="evenodd" clip-rule="evenodd" d="M41.0048 42.236C41.8962 42.8235 42.1443 44.0251 41.559 44.9197L34.8005 55.2495C34.2151 56.1442 33.0179 56.3932 32.1264 55.8057C31.235 55.2182 30.9869 54.0167 31.5722 53.122L38.3307 42.7923C38.9161 41.8976 40.1133 41.6485 41.0048 42.236ZM31.3497 44.174C32.2412 44.7615 32.4893 45.9631 31.904 46.8577L25.1454 57.1875C24.5601 58.0822 23.3629 58.3312 22.4714 57.7437C21.58 57.1562 21.3318 55.9547 21.9172 55.06L28.6757 44.7303C29.2611 43.8356 30.4583 43.5865 31.3497 44.174ZM48.7288 46.112C49.6202 46.6995 49.8684 47.9011 49.283 48.7957L42.5245 59.1255C41.9391 60.0202 40.7419 60.2692 39.8505 59.6817C38.959 59.0942 38.7109 57.8927 39.2962 56.998L46.0548 46.6683C46.6401 45.7736 47.8373 45.5245 48.7288 46.112Z" fill="url(#paint0_linear_27_1135)"/>
<g filter="url(#filter0_b_27_1135)">
<path d="M76 16.4384C76 25.517 68.6574 32.8767 59.6 32.8767C50.5425 32.8767 43.2 25.517 43.2 16.4384C43.2 7.3597 50.5425 0 59.6 0C68.6574 0 76 7.3597 76 16.4384Z" fill="url(#paint1_linear_27_1135)"/>
<path d="M74.5 16.4384C74.5 24.6919 67.8257 31.3767 59.6 31.3767C51.3742 31.3767 44.7 24.6919 44.7 16.4384C44.7 8.18482 51.3742 1.5 59.6 1.5C67.8257 1.5 74.5 8.18482 74.5 16.4384Z" stroke="url(#paint2_linear_27_1135)" stroke-width="3"/>
</g>
<g filter="url(#filter1_b_27_1135)">
<path d="M17.1294 50.9589C7.6691 50.9589 0 43.3539 0 33.9726C0 25.7785 5.8509 18.9395 13.6358 17.3399C16.3121 7.35625 25.4897 0 36.4 0C48.7339 0 58.8535 9.4013 59.8691 21.3718C67.1734 22.3661 72.8 28.5794 72.8 36.0959C72.8 44.3045 66.0895 50.9589 57.8118 50.9589H37.4706H17.1294Z" fill="url(#paint3_linear_27_1135)"/>
<path d="M13.9378 18.8092L14.8449 18.6228L15.0847 17.7282C17.5876 8.39127 26.1779 1.5 36.4 1.5C47.9584 1.5 57.4251 10.3084 58.3745 21.4986L58.4761 22.696L59.6668 22.858C66.2474 23.7539 71.3 29.3494 71.3 36.0959C71.3 43.4642 65.273 49.4589 57.8118 49.4589H37.4706H17.1294C8.48564 49.4589 1.5 42.5136 1.5 33.9726C1.5 26.5132 6.82785 20.2701 13.9378 18.8092Z" stroke="url(#paint4_linear_27_1135)" stroke-width="3"/>
</g>
<defs>
<filter id="filter0_b_27_1135" x="-18.8757" y="-62.0757" width="156.951" height="157.028" filterUnits="userSpaceOnUse" color-interpolation-filters="sRGB">
<feFlood flood-opacity="0" result="BackgroundImageFix"/>
<feGaussianBlur in="BackgroundImageFix" stdDeviation="31.0378"/>
<feComposite in2="SourceAlpha" operator="in" result="effect1_backgroundBlur_27_1135"/>
<feBlend mode="normal" in="SourceGraphic" in2="effect1_backgroundBlur_27_1135" result="shape"/>
</filter>
<filter id="filter1_b_27_1135" x="-12" y="-12" width="96.8" height="74.9589" filterUnits="userSpaceOnUse" color-interpolation-filters="sRGB">
<feFlood flood-opacity="0" result="BackgroundImageFix"/>
<feGaussianBlur in="BackgroundImageFix" stdDeviation="6"/>
<feComposite in2="SourceAlpha" operator="in" result="effect1_backgroundBlur_27_1135"/>
<feBlend mode="normal" in="SourceGraphic" in2="effect1_backgroundBlur_27_1135" result="shape"/>
</filter>
<linearGradient id="paint0_linear_27_1135" x1="35.6001" y1="41.9178" x2="35.6001" y2="60" gradientUnits="userSpaceOnUse">
<stop stop-color="#0066FF"/>
<stop offset="1" stop-color="#00C2FF"/>
</linearGradient>
<linearGradient id="paint1_linear_27_1135" x1="66.2064" y1="1.52191" x2="52.3352" y2="32.8492" gradientUnits="userSpaceOnUse">
<stop stop-color="#FFD88B"/>
<stop offset="1" stop-color="#FFA900"/>
</linearGradient>
<linearGradient id="paint2_linear_27_1135" x1="43.2" y1="0" x2="77.4248" y2="18.0826" gradientUnits="userSpaceOnUse">
<stop stop-color="white" stop-opacity="0.9"/>
<stop offset="1" stop-color="white" stop-opacity="0.2"/>
</linearGradient>
<linearGradient id="paint3_linear_27_1135" x1="0" y1="0" x2="73.6355" y2="49.7215" gradientUnits="userSpaceOnUse">
<stop stop-color="white"/>
<stop offset="1" stop-color="#F2E3D1" stop-opacity="0.3"/>
</linearGradient>
<linearGradient id="paint4_linear_27_1135" x1="0" y1="0" x2="61.7963" y2="46.7526" gradientUnits="userSpaceOnUse">
<stop stop-color="white" stop-opacity="0.9"/>
<stop offset="1" stop-color="white" stop-opacity="0.2"/>
</linearGradient>
</defs>
</svg>
