<svg width="150" height="115" viewBox="0 0 150 115" fill="none" xmlns="http://www.w3.org/2000/svg">
<path fill-rule="evenodd" clip-rule="evenodd" d="M140.5 50.977C136.331 52.6115 131.779 53.5108 127.012 53.5108C106.99 53.5108 90.7592 37.6438 90.7592 18.071C90.7592 11.4704 92.6051 5.29127 95.8198 0C82.4769 5.23113 73.0542 17.9928 73.0542 32.906C73.0542 52.4788 89.2852 68.3458 109.307 68.3458C122.577 68.3458 134.182 61.376 140.5 50.977Z" fill="#BAC7CB"/>
<g filter="url(#filter0_b_35_4806)">
<path fill-rule="evenodd" clip-rule="evenodd" d="M140.5 50.977C136.331 52.6115 131.779 53.5108 127.012 53.5108C106.99 53.5108 90.7592 37.6438 90.7592 18.071C90.7592 11.4704 92.6051 5.29127 95.8198 0C82.4769 5.23113 73.0542 17.9928 73.0542 32.906C73.0542 52.4788 89.2852 68.3458 109.307 68.3458C122.577 68.3458 134.182 61.376 140.5 50.977Z" fill="url(#paint0_linear_35_4806)"/>
</g>
<g filter="url(#filter1_b_35_4806)">
<path fill-rule="evenodd" clip-rule="evenodd" d="M138.778 52.3354C135.082 53.548 131.125 54.2048 127.012 54.2048C106.598 54.2048 90.0493 38.0271 90.0493 18.071C90.0493 12.0809 91.5408 6.42963 94.181 1.45448C82.1144 7.01008 73.7642 19.0055 73.7642 32.906C73.7642 52.0955 89.6773 67.6517 109.307 67.6517C121.574 67.6517 132.39 61.5775 138.778 52.3354ZM139.414 51.3829C135.545 52.7597 131.368 53.5108 127.012 53.5108C106.99 53.5108 90.7592 37.6438 90.7592 18.071C90.7592 11.8765 92.385 6.05325 95.242 0.986663C95.4294 0.654487 95.622 0.325563 95.8198 0C95.4563 0.142499 95.0957 0.290587 94.7382 0.444153C81.9706 5.928 73.0542 18.3991 73.0542 32.906C73.0542 52.4788 89.2852 68.3458 109.307 68.3458C122.158 68.3458 133.446 61.8099 139.885 51.9531C140.095 51.6313 140.3 51.3058 140.5 50.977C140.141 51.1178 139.779 51.2531 139.414 51.3829Z" fill="url(#paint1_linear_35_4806)"/>
</g>
<g filter="url(#filter2_b_35_4806)">
<path fill-rule="evenodd" clip-rule="evenodd" d="M140.5 50.977C136.331 52.6115 131.779 53.5108 127.012 53.5108C106.99 53.5108 90.7592 37.6438 90.7592 18.071C90.7592 11.4704 92.6051 5.29127 95.8198 0C82.4769 5.23113 73.0542 17.9928 73.0542 32.906C73.0542 52.4788 89.2852 68.3458 109.307 68.3458C122.577 68.3458 134.182 61.376 140.5 50.977Z" fill="url(#paint2_linear_35_4806)"/>
<path d="M127.012 56.0108C129.384 56.0108 131.707 55.8019 133.963 55.4018C127.808 61.8242 119.045 65.8458 109.307 65.8458C90.6122 65.8458 75.5542 51.045 75.5542 32.906C75.5542 21.5736 81.4244 11.5496 90.3961 5.61695C89.0118 9.51856 88.2592 13.7097 88.2592 18.071C88.2592 39.0777 105.663 56.0108 127.012 56.0108Z" stroke="url(#paint3_linear_35_4806)" stroke-width="5"/>
</g>
<g filter="url(#filter3_b_35_4806)">
<path d="M37.1798 115C21.8927 115 9.5 102.872 9.5 87.9112C9.5 74.8436 18.9546 63.9372 31.5344 61.3861C35.8591 45.4648 50.6894 33.7334 68.3195 33.7334C88.2501 33.7334 104.603 48.7261 106.244 67.816C118.047 69.4017 127.139 79.3104 127.139 91.2973C127.139 104.388 116.295 115 102.919 115H70.0495H37.1798Z" fill="url(#paint4_linear_35_4806)"/>
<path d="M32.1307 64.3263L33.9444 63.9585L34.4295 62.1725C38.3979 47.5627 52.0384 36.7334 68.3195 36.7334C86.7332 36.7334 101.75 50.5745 103.255 68.0729L103.461 70.4691L105.844 70.7893C116.228 72.1843 124.139 80.8821 124.139 91.2973C124.139 102.67 114.7 112 102.919 112H70.0495H37.1798C23.4882 112 12.5 101.154 12.5 87.9112C12.5 76.3425 20.8777 66.6083 32.1307 64.3263Z" stroke="url(#paint5_linear_35_4806)" stroke-width="6"/>
</g>
<defs>
<filter id="filter0_b_35_4806" x="10.9785" y="-62.0757" width="191.597" height="192.497" filterUnits="userSpaceOnUse" color-interpolation-filters="sRGB">
<feFlood flood-opacity="0" result="BackgroundImageFix"/>
<feGaussianBlur in="BackgroundImageFix" stdDeviation="31.0378"/>
<feComposite in2="SourceAlpha" operator="in" result="effect1_backgroundBlur_35_4806"/>
<feBlend mode="normal" in="SourceGraphic" in2="effect1_backgroundBlur_35_4806" result="shape"/>
</filter>
<filter id="filter1_b_35_4806" x="10.9785" y="-62.0757" width="191.597" height="192.497" filterUnits="userSpaceOnUse" color-interpolation-filters="sRGB">
<feFlood flood-opacity="0" result="BackgroundImageFix"/>
<feGaussianBlur in="BackgroundImageFix" stdDeviation="31.0378"/>
<feComposite in2="SourceAlpha" operator="in" result="effect1_backgroundBlur_35_4806"/>
<feBlend mode="normal" in="SourceGraphic" in2="effect1_backgroundBlur_35_4806" result="shape"/>
</filter>
<filter id="filter2_b_35_4806" x="10.9785" y="-62.0757" width="191.597" height="192.497" filterUnits="userSpaceOnUse" color-interpolation-filters="sRGB">
<feFlood flood-opacity="0" result="BackgroundImageFix"/>
<feGaussianBlur in="BackgroundImageFix" stdDeviation="31.0378"/>
<feComposite in2="SourceAlpha" operator="in" result="effect1_backgroundBlur_35_4806"/>
<feBlend mode="normal" in="SourceGraphic" in2="effect1_backgroundBlur_35_4806" result="shape"/>
</filter>
<filter id="filter3_b_35_4806" x="-2.5" y="21.7334" width="141.639" height="105.267" filterUnits="userSpaceOnUse" color-interpolation-filters="sRGB">
<feFlood flood-opacity="0" result="BackgroundImageFix"/>
<feGaussianBlur in="BackgroundImageFix" stdDeviation="6"/>
<feComposite in2="SourceAlpha" operator="in" result="effect1_backgroundBlur_35_4806"/>
<feBlend mode="normal" in="SourceGraphic" in2="effect1_backgroundBlur_35_4806" result="shape"/>
</filter>
<linearGradient id="paint0_linear_35_4806" x1="73.0542" y1="0" x2="143.763" y2="36.9529" gradientUnits="userSpaceOnUse">
<stop stop-color="white" stop-opacity="0.9"/>
<stop offset="1" stop-color="white" stop-opacity="0.2"/>
</linearGradient>
<linearGradient id="paint1_linear_35_4806" x1="73.0542" y1="0" x2="143.763" y2="36.9529" gradientUnits="userSpaceOnUse">
<stop stop-color="white" stop-opacity="0.9"/>
<stop offset="1" stop-color="white" stop-opacity="0.2"/>
</linearGradient>
<linearGradient id="paint2_linear_35_4806" x1="73.0542" y1="0" x2="154.631" y2="38.0498" gradientUnits="userSpaceOnUse">
<stop stop-color="#262949"/>
<stop offset="1" stop-color="#9192A2" stop-opacity="0.42"/>
</linearGradient>
<linearGradient id="paint3_linear_35_4806" x1="75.5511" y1="2.19683" x2="147.979" y2="39.3382" gradientUnits="userSpaceOnUse">
<stop stop-color="#262949"/>
<stop offset="1" stop-color="white" stop-opacity="0.2"/>
</linearGradient>
<linearGradient id="paint4_linear_35_4806" x1="9.5" y1="33.7334" x2="127.502" y2="114.47" gradientUnits="userSpaceOnUse">
<stop stop-color="white"/>
<stop offset="1" stop-color="#F2E3D1" stop-opacity="0.3"/>
</linearGradient>
<linearGradient id="paint5_linear_35_4806" x1="9.5" y1="33.7334" x2="108.396" y2="109.547" gradientUnits="userSpaceOnUse">
<stop stop-color="white" stop-opacity="0.9"/>
<stop offset="1" stop-color="white" stop-opacity="0.2"/>
</linearGradient>
</defs>
</svg>
