<svg width="5014" height="1555" viewBox="0 0 5014 1555" fill="none" xmlns="http://www.w3.org/2000/svg">
<rect width="5014" height="1555" fill="#CC6D38"/>
<path d="M1486.37 342C1446.44 886.328 1495.83 1079.71 1578.48 1103.96C1665.35 1129.41 1821.09 977.276 1798.76 875.387C1770.4 746.041 1455.56 699.309 1114 684.974" stroke="#F3E4D1" stroke-width="60" stroke-miterlimit="10" stroke-linecap="round"/>
<path d="M2148.87 837.319H2149.34C2152.97 837.319 2156.57 838.031 2159.92 839.416C2163.27 840.8 2166.32 842.83 2168.88 845.388C2171.45 847.946 2173.49 850.982 2174.88 854.325C2176.26 857.667 2176.98 861.25 2176.98 864.868V1078.53C2176.97 1085.83 2174.05 1092.83 2168.87 1098C2163.69 1103.16 2156.67 1106.07 2149.34 1106.08C2142.31 1106.07 2135.54 1103.4 2130.42 1098.6C2125.29 1093.8 2122.19 1087.24 2121.74 1080.24L2120.65 1062.47C2102.42 1096.81 2061.04 1113.35 2027.68 1113.35C1948.93 1113.86 1889.14 1063.19 1889.14 971.608C1889.14 881.658 1951.12 831.504 2028.59 831.504C2066.87 831.504 2103.51 849.676 2120.47 880.022L2121.09 863.995C2121.31 856.813 2124.34 850 2129.53 845.015C2134.72 840.03 2141.66 837.268 2148.87 837.319ZM1945.65 971.426C1945.65 1031.5 1991.62 1065.92 2044.93 1060.14C2148.58 1048.55 2148.58 894.814 2044.93 883.22C1991.62 877.296 1945.65 911.859 1945.65 971.353V971.426Z" fill="#F3E4D1"/>
<path d="M2310.29 753.325V1076.33C2310.29 1083.74 2307.42 1090.84 2302.3 1096.08C2297.19 1101.32 2290.24 1104.26 2283.01 1104.26C2275.78 1104.25 2268.85 1101.3 2263.74 1096.07C2258.63 1090.83 2255.76 1083.73 2255.76 1076.33V753.325C2255.76 745.927 2258.63 738.832 2263.74 733.602C2268.85 728.371 2275.78 725.432 2283.01 725.432C2290.24 725.432 2297.17 728.37 2302.29 733.6C2307.41 738.83 2310.29 745.924 2310.29 753.325Z" fill="#F3E4D1"/>
<path d="M2412.84 837.565C2416.31 837.565 2419.75 838.247 2422.96 839.571C2426.16 840.895 2429.08 842.836 2431.53 845.283C2433.99 847.73 2435.94 850.634 2437.27 853.831C2438.59 857.028 2439.28 860.455 2439.28 863.915V981.293C2439.28 1027.02 2465.5 1058.6 2512.48 1058.6C2556.73 1058.6 2587.32 1022.12 2587.32 977.481V863.915C2587.32 856.927 2590.1 850.224 2595.06 845.283C2600.02 840.341 2606.74 837.565 2613.76 837.565H2617.11C2624.12 837.565 2630.85 840.34 2635.82 845.28C2640.78 850.221 2643.57 856.923 2643.58 863.915V1080.12C2643.57 1087.12 2640.78 1093.82 2635.82 1098.77C2630.86 1103.72 2624.13 1106.5 2617.11 1106.51C2610.47 1106.5 2604.08 1104.01 2599.2 1099.53C2594.32 1095.04 2591.32 1088.89 2590.78 1082.3L2589.5 1066.77C2563.28 1096.71 2534.33 1110.32 2496.64 1110.32C2430.54 1110.32 2383.01 1062.96 2383.01 981.837V863.915C2383.01 856.927 2385.8 850.224 2390.76 845.283C2395.71 840.341 2402.44 837.565 2409.45 837.565H2412.84Z" fill="#F3E4D1"/>
<path d="M2926.86 1051.42C2929.58 1054.13 2931.67 1057.42 2932.96 1061.04C2934.25 1064.67 2934.71 1068.54 2934.31 1072.36C2933.91 1076.19 2932.66 1079.88 2930.65 1083.16C2928.64 1086.44 2925.92 1089.22 2922.69 1091.31C2899.75 1106.19 2872.88 1113.85 2845.55 1113.32C2768.34 1113.32 2704.18 1064.91 2704.18 972.432C2704.18 879.955 2767.8 831.54 2845.55 831.54C2871.32 830.93 2896.68 838.013 2918.41 851.885C2921.6 853.944 2924.29 856.681 2926.3 859.901C2928.31 863.121 2929.58 866.744 2930.03 870.513C2930.47 874.282 2930.08 878.103 2928.88 881.704C2927.68 885.304 2925.7 888.595 2923.09 891.342L2922.11 892.358C2918.09 896.543 2912.78 899.247 2907.04 900.03C2901.29 900.814 2895.45 899.631 2890.46 896.674C2876.96 888.91 2861.66 884.833 2846.09 884.851C2797.7 884.851 2760.19 919.122 2760.19 972.432C2760.19 1029.01 2799.33 1058.93 2845.55 1058.93C2862.34 1059.19 2878.88 1054.86 2893.4 1046.41C2898.32 1043.34 2904.14 1042 2909.91 1042.61C2915.68 1043.22 2921.09 1045.75 2925.26 1049.79L2926.86 1051.42Z" fill="#F3E4D1"/>
<path d="M3051.28 753.213V876.891C3074.77 844.42 3106.45 833.596 3138.68 833.596C3214.6 833.596 3249.56 884.107 3249.56 960.233V1076.3C3249.56 1083.69 3246.6 1090.78 3241.33 1096.01C3236.06 1101.23 3228.91 1104.18 3221.45 1104.19C3213.98 1104.19 3206.82 1101.25 3201.55 1096.02C3196.27 1090.79 3193.3 1083.69 3193.3 1076.3V960.846C3193.3 910.516 3167.08 885.622 3125.57 885.622C3081.87 885.622 3051.28 921.34 3051.28 965.175V1076.37C3051.28 1080.03 3050.56 1083.66 3049.15 1087.04C3047.74 1090.42 3045.67 1093.5 3043.06 1096.09C3040.45 1098.68 3037.35 1100.73 3033.93 1102.14C3030.52 1103.54 3026.86 1104.26 3023.16 1104.26C3019.47 1104.26 3015.81 1103.54 3012.4 1102.14C3008.98 1100.73 3005.88 1098.68 3003.27 1096.09C3000.66 1093.5 2998.59 1090.42 2997.18 1087.04C2995.77 1083.66 2995.05 1080.03 2995.05 1076.37V753.285C2995.05 749.627 2995.78 746.005 2997.19 742.626C2998.6 739.247 3000.68 736.177 3003.29 733.591C3005.9 731.004 3009 728.952 3012.41 727.553C3015.82 726.153 3019.47 725.432 3023.16 725.432C3030.61 725.432 3037.75 728.357 3043.02 733.565C3048.29 738.773 3051.26 745.838 3051.28 753.213Z" fill="#F3E4D1"/>
<path d="M3579.82 971.184C3579.82 1050.54 3525.21 1110.32 3441.4 1110.32C3358.14 1110.32 3304.1 1050.54 3304.1 971.184C3304.1 891.833 3358.68 831.504 3441.4 831.504C3524.13 831.504 3579.82 892.485 3579.82 971.184ZM3359.76 971.184C3359.76 1019.01 3390.58 1058.14 3441.4 1058.14C3492.77 1058.14 3523.59 1019.01 3523.59 971.184C3523.59 923.356 3490.07 883.136 3441.4 883.136C3390.58 883.245 3359.76 924.08 3359.76 971.184Z" fill="#F3E4D1"/>
<path d="M3844.3 1078.6V960.502C3844.3 918.066 3808.76 883.282 3766.31 886.184C3724.62 889.013 3696.57 924.268 3696.57 966.523V1078.96C3696.57 1082.64 3695.85 1086.29 3694.44 1089.69C3693.04 1093.09 3690.97 1096.18 3688.36 1098.78C3685.76 1101.39 3682.66 1103.45 3679.26 1104.86C3675.85 1106.27 3672.2 1107 3668.51 1107C3661.06 1107 3653.92 1104.05 3648.65 1098.79C3643.38 1093.53 3640.42 1086.4 3640.42 1078.96V864.965C3640.43 857.901 3643.25 851.13 3648.26 846.138C3653.26 841.147 3660.05 838.342 3667.13 838.342C3673.82 838.346 3680.27 840.856 3685.2 845.377C3690.12 849.897 3693.17 856.098 3693.73 862.753L3694.93 877.515C3720.55 848.498 3750.54 834.534 3785.42 834.534C3850.84 834.534 3900.99 880.779 3900.99 962.932V1079C3900.99 1086.5 3898 1093.7 3892.69 1099C3887.37 1104.31 3880.16 1107.29 3872.64 1107.29C3868.89 1107.29 3865.17 1106.55 3861.7 1105.1C3858.24 1103.65 3855.1 1101.53 3852.46 1098.86C3849.82 1096.19 3847.74 1093.03 3846.34 1089.55C3844.94 1086.07 3844.24 1082.35 3844.3 1078.6Z" fill="#F3E4D1"/>
</svg>
