<svg width="65" height="50" viewBox="0 0 65 50" fill="none" xmlns="http://www.w3.org/2000/svg">
<path d="M40.9783 24.7125L27.9594 35.3189H31.1965L25.4304 42.0777H28.8252L23.4565 49.9999L36.3256 40.937H32.7727L38.4572 34.4725H34.3939L40.9783 24.7125Z" fill="url(#paint0_radial_35_906)"/>
<g filter="url(#filter0_b_35_906)">
<path d="M18.7353 37.3564C11.9779 37.3564 6.5 31.7814 6.5 24.9043C6.5 18.8974 10.6792 13.884 16.2399 12.7113C18.1515 5.39264 24.707 0 32.5 0C41.3099 0 48.5382 6.8918 49.2637 15.667C54.481 16.3959 58.5 20.9507 58.5 26.4608C58.5 32.4783 53.7068 37.3564 47.7941 37.3564H33.2647H18.7353Z" fill="url(#paint1_linear_35_906)"/>
<path d="M16.5494 14.179L17.4568 13.9877L17.6912 13.0904C19.4388 6.39968 25.4222 1.5 32.5 1.5C40.5011 1.5 47.1053 7.76473 47.7688 15.7906L47.8676 16.9865L49.0561 17.1525C53.5229 17.7766 57 21.6892 57 26.4608C57 31.6748 52.8537 35.8564 47.7941 35.8564H33.2647H18.7353C12.8311 35.8564 8 30.9779 8 24.9043C8 19.6032 11.6859 15.2047 16.5494 14.179Z" stroke="url(#paint2_linear_35_906)" stroke-width="3"/>
</g>
<defs>
<filter id="filter0_b_35_906" x="-5.5" y="-12" width="76" height="61.3564" filterUnits="userSpaceOnUse" color-interpolation-filters="sRGB">
<feFlood flood-opacity="0" result="BackgroundImageFix"/>
<feGaussianBlur in="BackgroundImageFix" stdDeviation="6"/>
<feComposite in2="SourceAlpha" operator="in" result="effect1_backgroundBlur_35_906"/>
<feBlend mode="normal" in="SourceGraphic" in2="effect1_backgroundBlur_35_906" result="shape"/>
</filter>
<radialGradient id="paint0_radial_35_906" cx="0" cy="0" r="1" gradientUnits="userSpaceOnUse" gradientTransform="translate(32.2174 37.3562) rotate(90) scale(17.5987 12.1942)">
<stop stop-color="#FFD88B"/>
<stop offset="1" stop-color="#FFA900"/>
</radialGradient>
<linearGradient id="paint1_linear_35_906" x1="6.5" y1="0" x2="59.9435" y2="35.1624" gradientUnits="userSpaceOnUse">
<stop stop-color="#BEBEBE"/>
<stop offset="1" stop-color="#BCB8B3" stop-opacity="0.35"/>
</linearGradient>
<linearGradient id="paint2_linear_35_906" x1="6.5" y1="0" x2="51.4683" y2="33.1495" gradientUnits="userSpaceOnUse">
<stop stop-color="white" stop-opacity="0.9"/>
<stop offset="1" stop-color="white" stop-opacity="0.2"/>
</linearGradient>
</defs>
</svg>
