<svg width="150" height="115" viewBox="0 0 150 115" fill="none" xmlns="http://www.w3.org/2000/svg">
<g filter="url(#filter0_b_35_4433)">
<path d="M132.5 57.5C132.5 89.2564 106.756 115 75 115C43.2436 115 17.5 89.2564 17.5 57.5C17.5 25.7436 43.2436 0 75 0C106.756 0 132.5 25.7436 132.5 57.5Z" fill="url(#paint0_linear_35_4433)"/>
<path d="M129.5 57.5C129.5 87.5995 105.1 112 75 112C44.9005 112 20.5 87.5995 20.5 57.5C20.5 27.4005 44.9005 3 75 3C105.1 3 129.5 27.4005 129.5 57.5Z" stroke="url(#paint1_linear_35_4433)" stroke-width="6"/>
</g>
<defs>
<filter id="filter0_b_35_4433" x="-44.5757" y="-62.0757" width="239.151" height="239.151" filterUnits="userSpaceOnUse" color-interpolation-filters="sRGB">
<feFlood flood-opacity="0" result="BackgroundImageFix"/>
<feGaussianBlur in="BackgroundImageFix" stdDeviation="31.0378"/>
<feComposite in2="SourceAlpha" operator="in" result="effect1_backgroundBlur_35_4433"/>
<feBlend mode="normal" in="SourceGraphic" in2="effect1_backgroundBlur_35_4433" result="shape"/>
</filter>
<linearGradient id="paint0_linear_35_4433" x1="98.1627" y1="5.3235" x2="49.7189" y2="114.988" gradientUnits="userSpaceOnUse">
<stop stop-color="#FFD88B"/>
<stop offset="1" stop-color="#FFA900"/>
</linearGradient>
<linearGradient id="paint1_linear_35_4433" x1="17.5" y1="0" x2="137.373" y2="63.4826" gradientUnits="userSpaceOnUse">
<stop stop-color="white" stop-opacity="0.9"/>
<stop offset="1" stop-color="white" stop-opacity="0.2"/>
</linearGradient>
</defs>
</svg>
