<svg width="150" height="116" viewBox="0 0 150 116" fill="none" xmlns="http://www.w3.org/2000/svg">
<path d="M51.823 94.704C51.4587 94.0889 50.6526 93.8789 50.0221 94.2333L47.3183 95.7549V92.7123C47.3183 92.0029 46.7278 91.4274 45.9998 91.4274C45.2719 91.4274 44.6813 92.0029 44.6813 92.7123V95.7549L41.9776 94.2333C41.3471 93.8782 40.541 94.0889 40.1767 94.704C39.813 95.3185 40.0286 96.1041 40.6591 96.4591L43.3628 97.9801L40.6591 99.501C40.0286 99.8561 39.813 100.642 40.1767 101.256C40.4209 101.668 40.864 101.899 41.3197 101.899C41.5432 101.899 41.7701 101.843 41.9776 101.727L44.6813 100.205V103.248C44.6813 103.957 45.2719 104.533 45.9998 104.533C46.7278 104.533 47.3183 103.957 47.3183 103.248V100.205L50.0221 101.727C50.2296 101.843 50.4564 101.899 50.68 101.899C51.1357 101.899 51.5788 101.668 51.823 101.256C52.1873 100.642 51.9711 99.8561 51.3406 99.501L48.6368 97.9801L51.3406 96.4591C51.9711 96.1041 52.1873 95.3185 51.823 94.704Z" fill="url(#paint0_linear_27_879)"/>
<path d="M115.34 99.501L112.637 97.9801L115.34 96.4591C115.971 96.1041 116.187 95.3185 115.823 94.704C115.458 94.0889 114.652 93.8789 114.022 94.2333L111.318 95.7549V92.7123C111.318 92.0029 110.728 91.4274 110 91.4274C109.272 91.4274 108.681 92.0029 108.681 92.7123V95.7549L105.977 94.2333C105.347 93.8782 104.541 94.0889 104.176 94.704C103.813 95.3185 104.028 96.1041 104.659 96.4591L107.363 97.9801L104.659 99.501C104.028 99.8561 103.813 100.642 104.176 101.256C104.421 101.668 104.864 101.899 105.319 101.899C105.543 101.899 105.77 101.843 105.977 101.727L108.681 100.205V103.248C108.681 103.957 109.272 104.533 110 104.533C110.728 104.533 111.318 103.957 111.318 103.248V100.205L114.022 101.727C114.229 101.843 114.456 101.899 114.68 101.899C115.135 101.899 115.579 101.668 115.823 101.256C116.187 100.642 115.971 99.8561 115.34 99.501Z" fill="url(#paint1_linear_27_879)"/>
<path d="M83.8227 94.704C83.4584 94.0895 82.6524 93.8789 82.0219 94.2333L79.3182 95.7549V92.7123C79.3182 92.0029 78.7277 91.4274 77.9997 91.4274C77.2718 91.4274 76.6813 92.0029 76.6813 92.7123V95.7549L73.9776 94.2333C73.3471 93.8789 72.5411 94.0895 72.1767 94.704C71.8124 95.3185 72.0286 96.1041 72.6592 96.4591L75.3628 97.9801L72.6592 99.501C72.0286 99.8561 71.8124 100.642 72.1767 101.256C72.421 101.668 72.864 101.899 73.3197 101.899C73.5433 101.899 73.7701 101.843 73.9776 101.727L76.6813 100.205V103.248C76.6813 103.957 77.2718 104.533 77.9997 104.533C78.7277 104.533 79.3182 103.957 79.3182 103.248V100.206L82.0219 101.727C82.2294 101.844 82.4562 101.899 82.6798 101.899C83.1355 101.899 83.5785 101.668 83.8227 101.257C84.1864 100.642 83.9709 99.8561 83.3403 99.5017L80.6367 97.9801L83.3403 96.4591C83.9709 96.1041 84.1871 95.3185 83.8227 94.704Z" fill="url(#paint2_linear_27_879)"/>
<path d="M67.4897 106.171C67.1254 105.556 66.3194 105.346 65.6888 105.7L62.9851 107.222V104.18C62.9851 103.47 62.3946 102.895 61.6666 102.895C60.9386 102.895 60.3481 103.47 60.3481 104.18V107.222L57.6444 105.7C57.0138 105.345 56.2078 105.556 55.8434 106.171C55.4798 106.786 55.6953 107.571 56.3259 107.926L59.0296 109.447L56.3259 110.968C55.6953 111.323 55.4798 112.109 55.8434 112.723C56.0877 113.136 56.5307 113.366 56.9865 113.366C57.21 113.366 57.4369 113.311 57.6444 113.194L60.3481 111.672V114.715C60.3481 115.425 60.9386 116 61.6666 116C62.3946 116 62.9851 115.425 62.9851 114.715V111.672L65.6888 113.194C65.8963 113.311 66.1232 113.366 66.3467 113.366C66.8025 113.366 67.2455 113.136 67.4897 112.723C67.8541 112.109 67.6379 111.323 67.0073 110.968L64.3036 109.447L67.0073 107.926C67.6379 107.571 67.8541 106.786 67.4897 106.171Z" fill="url(#paint3_linear_27_879)"/>
<path d="M131.007 110.968L128.303 109.447L131.007 107.926C131.638 107.571 131.854 106.786 131.489 106.171C131.125 105.556 130.319 105.346 129.689 105.7L126.985 107.222V104.18C126.985 103.47 126.394 102.895 125.666 102.895C124.938 102.895 124.348 103.47 124.348 104.18V107.222L121.644 105.7C121.014 105.345 120.208 105.556 119.843 106.171C119.48 106.786 119.695 107.571 120.326 107.926L123.029 109.447L120.326 110.968C119.695 111.323 119.48 112.109 119.843 112.723C120.087 113.136 120.53 113.366 120.986 113.366C121.21 113.366 121.437 113.311 121.644 113.194L124.348 111.672V114.715C124.348 115.425 124.938 116 125.666 116C126.394 116 126.985 115.425 126.985 114.715V111.672L129.689 113.194C129.896 113.311 130.123 113.366 130.346 113.366C130.802 113.366 131.245 113.136 131.489 112.723C131.854 112.109 131.638 111.323 131.007 110.968Z" fill="url(#paint4_linear_27_879)"/>
<path d="M99.4897 106.171C99.1254 105.557 98.3194 105.346 97.6889 105.7L94.9852 107.222V104.18C94.9852 103.47 94.3947 102.895 93.6667 102.895C92.9388 102.895 92.3483 103.47 92.3483 104.18V107.222L89.6446 105.7C89.0141 105.346 88.2081 105.557 87.8437 106.171C87.4794 106.786 87.6956 107.571 88.3262 107.926L91.0298 109.447L88.3262 110.968C87.6956 111.323 87.4794 112.109 87.8437 112.723C88.0879 113.136 88.531 113.366 88.9867 113.366C89.2102 113.366 89.4371 113.311 89.6446 113.194L92.3483 111.672V114.715C92.3483 115.425 92.9388 116 93.6667 116C94.3947 116 94.9852 115.425 94.9852 114.715V111.673L97.6889 113.194C97.8964 113.311 98.1232 113.366 98.3468 113.366C98.8025 113.366 99.2455 113.136 99.4897 112.724C99.8534 112.109 99.6379 111.323 99.0073 110.969L96.3037 109.447L99.0073 107.926C99.6379 107.571 99.854 106.786 99.4897 106.171Z" fill="url(#paint5_linear_27_879)"/>
<g filter="url(#filter0_b_27_879)">
<path d="M54.2353 83.5641C38.6414 83.5641 26 71.2424 26 56.0428C26 42.7666 35.6443 31.686 48.4767 29.0942C52.8881 12.9187 68.0161 1 86 1C106.331 1 123.011 16.2321 124.685 35.6267C136.725 37.2378 146 47.3046 146 59.4829C146 72.7826 134.939 83.5641 121.294 83.5641H87.7647H54.2353Z" fill="url(#paint6_linear_27_879)"/>
<path d="M49.0706 32.0348L50.8842 31.6686L51.371 29.8836C55.4232 15.025 69.3567 4 86 4C104.824 4 120.161 18.0909 121.696 35.8847L121.903 38.2812L124.287 38.6002C134.917 40.0225 143 48.8861 143 59.4829C143 71.0538 133.355 80.5641 121.294 80.5641H87.7647H54.2353C40.2253 80.5641 29 69.5136 29 56.0428C29 44.2745 37.558 34.3601 49.0706 32.0348Z" stroke="url(#paint7_linear_27_879)" stroke-width="6"/>
</g>
<g filter="url(#filter1_b_27_879)">
<path d="M27.7647 98.3078C14.6398 98.3078 4 87.893 4 75.0456C4 63.8241 12.1173 54.4584 22.9179 52.2677C26.6308 38.5955 39.3635 28.5214 54.5 28.5214C71.6116 28.5214 85.6512 41.3961 87.0602 57.7892C97.1939 59.1509 105 67.6598 105 77.9534C105 89.1948 95.6902 98.3078 84.2059 98.3078H55.9853H27.7647Z" fill="url(#paint8_linear_27_879)"/>
<path d="M23.5142 55.2078L25.328 54.8399L25.813 53.0539C29.1699 40.693 40.7129 31.5214 54.5 31.5214C70.0942 31.5214 82.7989 43.244 84.0712 58.0461L84.2772 60.4422L86.6607 60.7625C95.3746 61.9334 102 69.2311 102 77.9534C102 87.4778 94.0941 95.3078 84.2059 95.3078H55.9853H27.7647C16.2359 95.3078 7 86.176 7 75.0456C7 65.3225 14.0409 57.1293 23.5142 55.2078Z" stroke="url(#paint9_linear_27_879)" stroke-width="6"/>
</g>
<defs>
<filter id="filter0_b_27_879" x="14" y="-11" width="144" height="106.564" filterUnits="userSpaceOnUse" color-interpolation-filters="sRGB">
<feFlood flood-opacity="0" result="BackgroundImageFix"/>
<feGaussianBlur in="BackgroundImageFix" stdDeviation="6"/>
<feComposite in2="SourceAlpha" operator="in" result="effect1_backgroundBlur_27_879"/>
<feBlend mode="normal" in="SourceGraphic" in2="effect1_backgroundBlur_27_879" result="shape"/>
</filter>
<filter id="filter1_b_27_879" x="-8" y="16.5214" width="125" height="93.7863" filterUnits="userSpaceOnUse" color-interpolation-filters="sRGB">
<feFlood flood-opacity="0" result="BackgroundImageFix"/>
<feGaussianBlur in="BackgroundImageFix" stdDeviation="6"/>
<feComposite in2="SourceAlpha" operator="in" result="effect1_backgroundBlur_27_879"/>
<feBlend mode="normal" in="SourceGraphic" in2="effect1_backgroundBlur_27_879" result="shape"/>
</filter>
<linearGradient id="paint0_linear_27_879" x1="40" y1="91.4274" x2="54.884" y2="97.869" gradientUnits="userSpaceOnUse">
<stop stop-color="white"/>
<stop offset="1" stop-color="#F2E3D1" stop-opacity="0.3"/>
</linearGradient>
<linearGradient id="paint1_linear_27_879" x1="104" y1="91.4274" x2="118.884" y2="97.869" gradientUnits="userSpaceOnUse">
<stop stop-color="white"/>
<stop offset="1" stop-color="#F2E3D1" stop-opacity="0.3"/>
</linearGradient>
<linearGradient id="paint2_linear_27_879" x1="71.9998" y1="91.4274" x2="86.8837" y2="97.869" gradientUnits="userSpaceOnUse">
<stop stop-color="white"/>
<stop offset="1" stop-color="#F2E3D1" stop-opacity="0.3"/>
</linearGradient>
<linearGradient id="paint3_linear_27_879" x1="55.6667" y1="102.895" x2="70.5507" y2="109.336" gradientUnits="userSpaceOnUse">
<stop stop-color="white"/>
<stop offset="1" stop-color="#F2E3D1" stop-opacity="0.3"/>
</linearGradient>
<linearGradient id="paint4_linear_27_879" x1="119.667" y1="102.895" x2="134.55" y2="109.336" gradientUnits="userSpaceOnUse">
<stop stop-color="white"/>
<stop offset="1" stop-color="#F2E3D1" stop-opacity="0.3"/>
</linearGradient>
<linearGradient id="paint5_linear_27_879" x1="87.6667" y1="102.895" x2="102.551" y2="109.336" gradientUnits="userSpaceOnUse">
<stop stop-color="white"/>
<stop offset="1" stop-color="#F2E3D1" stop-opacity="0.3"/>
</linearGradient>
<linearGradient id="paint6_linear_27_879" x1="26" y1="1" x2="146.06" y2="83.477" gradientUnits="userSpaceOnUse">
<stop stop-color="white"/>
<stop offset="1" stop-color="#F2E3D1" stop-opacity="0.3"/>
</linearGradient>
<linearGradient id="paint7_linear_27_879" x1="26" y1="1" x2="126.579" y2="78.4158" gradientUnits="userSpaceOnUse">
<stop stop-color="white" stop-opacity="0.9"/>
<stop offset="1" stop-color="white" stop-opacity="0.2"/>
</linearGradient>
<linearGradient id="paint8_linear_27_879" x1="4" y1="28.5214" x2="105.324" y2="97.8336" gradientUnits="userSpaceOnUse">
<stop stop-color="white"/>
<stop offset="1" stop-color="#F2E3D1" stop-opacity="0.3"/>
</linearGradient>
<linearGradient id="paint9_linear_27_879" x1="4" y1="28.5214" x2="88.9205" y2="93.6086" gradientUnits="userSpaceOnUse">
<stop stop-color="white" stop-opacity="0.9"/>
<stop offset="1" stop-color="white" stop-opacity="0.2"/>
</linearGradient>
</defs>
</svg>
